<svg width="574" height="574" viewBox="0 0 574 574" fill="none" xmlns="http://www.w3.org/2000/svg">
<path fill-rule="evenodd" clip-rule="evenodd" d="M411.457 332.584C451.447 401.85 476.077 522.221 434.568 546.186C393.059 570.151 301.129 488.636 261.139 419.37C258.444 414.703 256.054 410.211 253.953 405.884C184.192 444.648 67.5348 467.73 43.9832 426.938C22.4503 389.642 86.0728 311.641 149.453 267.183C148.417 265.492 147.38 263.749 146.344 261.955C106.354 192.689 81.7239 72.3176 123.233 48.3523C164.742 24.3869 256.672 105.902 296.662 175.168C297.354 176.366 298.025 177.552 298.677 178.727C305.675 172.889 314.125 167.058 324.216 161.232C393.482 121.241 513.853 96.6118 537.818 138.121C561.783 179.63 480.268 271.559 411.002 311.55C407.721 313.445 404.526 315.188 401.415 316.787C404.764 321.535 408.111 326.789 411.457 332.584Z" fill="black"/>
<path fill-rule="evenodd" clip-rule="evenodd" d="M529.818 427.94C553.784 386.431 472.268 294.502 403.002 254.511C351.864 224.986 321.699 232.026 299.769 254.437C310.549 222.563 303.455 191.331 249.586 160.23C180.32 120.239 59.949 95.6092 35.9837 137.118C12.0183 178.628 93.5337 270.557 162.8 310.548C213.938 340.072 244.103 333.033 266.033 310.622C255.253 342.495 262.347 373.728 316.216 404.829C385.482 444.82 505.853 469.449 529.818 427.94Z" fill="#A7D379"/>
<path fill-rule="evenodd" clip-rule="evenodd" d="M140.749 546.186C99.2397 522.221 123.869 401.85 163.86 332.584C203.851 263.318 244.059 271.386 285.568 295.352C327.077 319.317 354.169 350.104 314.178 419.37C274.187 488.636 182.258 570.151 140.749 546.186ZM450.569 49.3549C409.06 25.3896 317.13 106.905 277.139 176.171C237.149 245.437 264.24 276.224 305.749 300.19C347.258 324.155 387.467 332.223 427.457 262.957C467.448 193.691 492.078 73.3203 450.569 49.3549Z" fill="#A7D379"/>
<path fill-rule="evenodd" clip-rule="evenodd" d="M570.752 272.603C567.988 224.752 449.382 192.683 369.534 197.296C319.532 200.184 296.586 216.772 287.096 240.519C277.853 216.237 254.97 199.223 204.268 196.294C124.419 191.681 5.8135 223.75 3.04934 271.601C0.285174 319.452 114.409 364.965 194.258 369.577C253.683 373.01 277.377 352.822 286.749 322.545C295.908 353.377 319.465 374.05 379.544 370.579C459.392 365.967 573.516 320.454 570.752 272.603Z" fill="#A9A9A9"/>
<path fill-rule="evenodd" clip-rule="evenodd" d="M286.377 570.599C334.307 570.599 373.163 454.04 373.163 374.058C373.163 320.315 355.619 296.762 329.566 287.092C352.908 277.214 369.008 254.061 371.338 204.428C375.09 124.534 341.744 6.28076 293.866 4.03258C245.988 1.78441 201.709 116.393 197.957 196.286C195.264 253.631 214.183 277.505 242.782 287.244C216.953 297.007 199.591 320.594 199.591 374.058C199.591 454.04 238.446 570.599 286.377 570.599Z" fill="#3DA542"/>
<path d="M266.933 170.736C271.551 154.549 294.364 154.198 299.478 170.235L304.835 187.036C308.519 198.591 322.77 202.682 332.022 194.841L348.107 181.21C361.506 169.855 381.227 183.798 374.99 200.216L374.249 202.166C369.372 215.005 380.944 228.028 394.267 224.694L408.556 221.119C424.96 217.015 435.086 238.464 421.492 248.521V248.521C410.501 256.653 414.922 274.036 428.418 276.22V276.22C445.788 279.031 446.173 304.06 428.898 307.404V307.404C415.475 310.003 411.592 327.514 422.828 335.303V335.303C436.725 344.937 427.264 366.688 410.742 363.09L396.349 359.957C382.93 357.035 371.764 370.408 377.034 383.091L377.835 385.017C384.574 401.236 365.291 415.778 351.549 404.841L335.053 391.712C325.564 384.16 311.445 388.688 308.118 400.35L303.281 417.308C298.663 433.495 275.85 433.846 270.736 417.809L265.379 401.008C261.695 389.453 247.444 385.362 238.192 393.203L222.107 406.834C208.708 418.189 188.987 404.246 195.224 387.828L195.965 385.878C200.842 373.039 189.27 360.016 175.947 363.349L161.658 366.924C145.254 371.029 135.128 349.58 148.722 339.522V339.522C159.713 331.391 155.292 314.008 141.796 311.824V311.824C124.426 309.013 124.041 283.984 141.316 280.64V280.64C154.739 278.041 158.622 260.53 147.386 252.741V252.741C133.489 243.107 142.95 221.356 159.472 224.954L173.865 228.087C187.284 231.009 198.45 217.636 193.18 204.953L192.379 203.027C185.641 186.808 204.923 172.265 218.665 183.202L235.161 196.332C244.651 203.884 258.769 199.356 262.096 187.694L266.933 170.736Z" fill="white"/>
<path d="M271.843 241.592C274.94 230.734 290.243 230.498 293.673 241.256V241.256C296.144 249.006 305.703 251.75 311.909 246.491L317.884 241.428C325.434 235.03 336.546 242.886 333.032 252.138V252.138C330.284 259.372 336.804 266.71 344.312 264.832L351.827 262.952C360.879 260.687 366.466 272.523 358.965 278.072V278.072C352.9 282.559 355.34 292.151 362.787 293.356V293.356C372.371 294.907 372.584 308.718 363.052 310.564V310.564C355.645 311.997 353.502 321.66 359.702 325.958V325.958C367.37 331.274 362.15 343.276 353.033 341.291L345.463 339.643C337.902 337.997 331.61 345.532 334.579 352.678V352.678C338.377 361.817 327.511 370.012 319.768 363.849L313.641 358.973C307.276 353.907 297.805 356.944 295.574 364.767V364.767C292.477 375.625 277.174 375.86 273.744 365.103V365.103C271.272 357.352 261.713 354.608 255.507 359.868L249.533 364.93C241.983 371.329 230.871 363.472 234.385 354.221V354.221C237.133 346.986 230.612 339.648 223.105 341.526L215.589 343.407C206.538 345.671 200.95 333.836 208.451 328.286V328.286C214.516 323.799 212.077 314.207 204.63 313.002V313.002C195.045 311.451 194.832 297.64 204.365 295.795V295.795C211.771 294.361 213.914 284.699 207.714 280.4V280.4C200.046 275.084 205.266 263.083 214.383 265.068L221.953 266.716C229.515 268.362 235.807 260.826 232.837 253.68V253.68C229.04 244.541 239.905 236.346 247.648 242.509L253.776 247.386C260.141 252.452 269.611 249.414 271.843 241.592V241.592Z" fill="#F2EEB7"/>
<path fill-rule="evenodd" clip-rule="evenodd" d="M330.693 246.576C333.59 245.923 336.11 243.866 337.224 240.875C338.978 236.168 336.584 230.929 331.876 229.176C327.168 227.422 321.93 229.816 320.176 234.524C318.549 238.892 320.493 243.717 324.543 245.791L320.409 281.022C320.21 282.723 321.427 284.263 323.127 284.463C324.828 284.662 326.368 283.445 326.567 281.745L330.693 246.576Z" fill="#3DA542"/>
<path fill-rule="evenodd" clip-rule="evenodd" d="M234.935 303.742C237.557 302.127 239.295 299.22 239.267 295.916C239.226 290.892 235.12 286.853 230.096 286.895C225.072 286.937 221.034 291.043 221.075 296.066C221.113 300.571 224.418 304.284 228.723 304.973L238.162 342.231C238.59 343.924 240.31 344.948 242.003 344.52C243.696 344.091 244.721 342.371 244.292 340.678L234.935 303.742Z" fill="#A7D379"/>
<path fill-rule="evenodd" clip-rule="evenodd" d="M339.106 298.596C342.247 298.223 345.104 296.22 346.422 293.098C348.376 288.47 346.208 283.134 341.579 281.18C336.951 279.226 331.615 281.394 329.661 286.023C327.876 290.251 329.532 295.07 333.36 297.361L327.23 335.438C326.973 337.039 328.061 338.545 329.661 338.802C331.262 339.06 332.768 337.972 333.025 336.371L339.106 298.596Z" fill="#A7D379"/>
<path fill-rule="evenodd" clip-rule="evenodd" d="M301.688 236.126C304.433 235.014 306.582 232.584 307.201 229.461C308.178 224.533 304.976 219.746 300.048 218.769C295.12 217.792 290.333 220.995 289.356 225.923C288.43 230.592 291.257 235.136 295.75 236.43L297.616 278.739C297.688 280.38 299.077 281.651 300.717 281.579C302.357 281.506 303.628 280.118 303.556 278.477L301.688 236.126Z" fill="black"/>
<path fill-rule="evenodd" clip-rule="evenodd" d="M270.511 249.949C273.059 248.768 275.027 246.427 275.615 243.461C276.592 238.533 273.389 233.746 268.461 232.769C263.534 231.792 258.747 234.995 257.769 239.922C256.815 244.737 259.85 249.417 264.585 250.541L266.049 283.724C266.122 285.364 267.51 286.636 269.15 286.563C270.791 286.491 272.062 285.102 271.989 283.462L270.511 249.949Z" fill="#A7D379"/>
<path fill-rule="evenodd" clip-rule="evenodd" d="M304.615 311.899C307.112 310.703 309.034 308.386 309.614 305.461C310.592 300.533 307.389 295.746 302.461 294.769C297.533 293.792 292.746 296.995 291.769 301.922C290.83 306.657 293.75 311.262 298.351 312.482L299.933 348.358C300.01 350.092 301.477 351.435 303.211 351.359C304.944 351.282 306.287 349.815 306.211 348.082L304.615 311.899Z" fill="#3DA542"/>
<path fill-rule="evenodd" clip-rule="evenodd" d="M271.118 308.33C273.784 307.188 275.859 304.793 276.466 301.734C277.443 296.806 274.24 292.019 269.312 291.042C264.384 290.065 259.597 293.267 258.62 298.195C257.706 302.805 260.45 307.292 264.843 308.652L266.704 350.851C266.781 352.584 268.248 353.928 269.981 353.851C271.715 353.775 273.058 352.307 272.982 350.574L271.118 308.33Z" fill="black"/>
<path fill-rule="evenodd" clip-rule="evenodd" d="M240.667 252.485C243.085 250.953 244.743 248.306 244.89 245.23C245.13 240.212 241.257 235.95 236.239 235.71C231.221 235.47 226.958 239.344 226.718 244.362C226.49 249.147 230.002 253.245 234.68 253.823L242.301 293.006C242.624 294.668 244.234 295.754 245.896 295.43C247.558 295.107 248.643 293.498 248.32 291.836L240.667 252.485Z" fill="#3DA542"/>
</svg>
