<svg width="574" height="574" viewBox="0 0 574 574" fill="none" xmlns="http://www.w3.org/2000/svg">
<path fill-rule="evenodd" clip-rule="evenodd" d="M570.752 272.603C567.988 224.753 449.382 192.684 369.534 197.296C319.532 200.185 296.586 216.772 287.096 240.519C277.853 216.237 254.97 199.223 204.268 196.294C124.419 191.682 5.8135 223.75 3.04934 271.601C0.285174 319.452 114.409 364.965 194.258 369.577C253.683 373.01 277.377 352.822 286.749 322.545C295.908 353.377 319.465 374.05 379.544 370.58C459.392 365.967 573.516 320.454 570.752 272.603Z" fill="#99D671"/>
<path fill-rule="evenodd" clip-rule="evenodd" d="M529.818 427.94C553.784 386.431 472.268 294.502 403.002 254.511C351.864 224.986 321.699 232.026 299.769 254.437C310.549 222.564 303.455 191.331 249.586 160.23C180.32 120.239 59.949 95.6095 35.9837 137.119C12.0184 178.628 93.5338 270.557 162.8 310.548C213.938 340.073 244.103 333.033 266.033 310.622C255.253 342.496 262.347 373.728 316.216 404.829C385.482 444.82 505.853 469.45 529.818 427.94Z" fill="#27AD75"/>
<path fill-rule="evenodd" clip-rule="evenodd" d="M43.9832 426.938C20.0179 385.429 101.533 293.499 170.799 253.509C221.204 224.408 251.232 230.829 273.083 252.48C263.737 221.631 272.016 191.37 324.216 161.232C393.482 121.242 513.853 96.612 537.818 138.121C561.783 179.63 480.268 271.56 411.002 311.55C360.597 340.652 330.569 334.23 308.718 312.58C318.064 343.428 309.785 373.689 257.585 403.827C188.319 443.817 67.9485 468.447 43.9832 426.938Z" fill="#FCC95A"/>
<path fill-rule="evenodd" clip-rule="evenodd" d="M434.568 546.186C476.077 522.221 451.447 401.85 411.457 332.584C371.466 263.318 331.258 271.386 289.749 295.352C248.239 319.317 221.148 350.104 261.139 419.37C301.129 488.636 393.059 570.151 434.568 546.186ZM123.233 48.3525C164.742 24.3871 256.672 105.903 296.662 175.169C336.653 244.435 309.562 275.222 268.053 299.187C226.543 323.152 186.335 331.221 146.344 261.955C106.354 192.689 81.7239 72.3178 123.233 48.3525Z" fill="#F7834A"/>
<path fill-rule="evenodd" clip-rule="evenodd" d="M140.749 546.186C99.2397 522.221 123.869 401.85 163.86 332.584C203.851 263.318 244.059 271.386 285.568 295.352C327.077 319.317 354.169 350.104 314.178 419.37C274.187 488.636 182.258 570.152 140.749 546.186ZM450.569 49.355C409.06 25.3896 317.13 106.905 277.139 176.171C237.149 245.437 264.24 276.224 305.749 300.19C347.258 324.155 387.467 332.223 427.457 262.957C467.448 193.691 492.078 73.3203 450.569 49.355Z" fill="#F7834A"/>
<path fill-rule="evenodd" clip-rule="evenodd" d="M286.377 570.599C334.307 570.599 373.163 454.04 373.163 374.059C373.163 320.315 355.619 296.762 329.566 287.093C352.908 277.214 369.008 254.062 371.338 204.428C375.09 124.534 341.744 6.28094 293.866 4.03277C245.988 1.78459 201.708 116.393 197.957 196.286C195.264 253.631 214.183 277.505 242.781 287.244C216.953 297.008 199.591 320.594 199.591 374.059C199.591 454.04 238.446 570.599 286.377 570.599Z" fill="#E53446"/>
<path d="M99.0461 285.949C97.5973 237.614 130.517 220.201 165.254 220.201C287.278 220.201 279.856 353.499 399.208 353.499C429.491 353.499 464.259 333.007 466.9 286.85C468.978 250.523 438.398 219 399.208 219C282.825 219 289.06 355 167.035 355C134.971 354.1 100.531 335.486 99.0461 285.949Z" stroke="#F9FCFB" stroke-width="59"/>
</svg>
