<svg width="574" height="574" viewBox="0 0 574 574" fill="none" xmlns="http://www.w3.org/2000/svg">
<g clip-path="url(#clip0_217_737)">
<path d="M369.534 197.297C449.382 192.685 567.988 224.753 570.752 272.604C573.516 320.455 459.392 365.968 379.544 370.58C299.695 375.193 284.36 337.159 281.595 289.308C278.831 241.457 289.685 201.91 369.534 197.297Z" fill="#EA4DB9"/>
<path d="M284.591 289.135C283.216 265.344 285.31 244.434 296.984 228.889C308.575 213.454 330.198 202.574 369.706 200.292C409.23 198.009 458.461 204.814 498.095 218.121C517.914 224.775 535.162 232.999 547.563 242.393C560.015 251.827 567.14 262.09 567.757 272.777C568.375 283.465 562.479 294.48 551.196 305.285C539.959 316.045 523.773 326.2 504.852 335.092C467.014 352.873 418.893 365.302 379.37 367.586C339.862 369.868 317.13 361.551 303.838 347.553C290.453 333.455 285.965 312.925 284.591 289.135Z" stroke="black" stroke-opacity="0.5" stroke-width="6"/>
<path d="M204.267 196.295C124.419 191.682 5.81303 223.751 3.04887 271.602C0.284703 319.453 114.409 364.966 194.257 369.578C274.106 374.191 289.441 336.156 292.206 288.306C294.97 240.455 284.116 200.907 204.267 196.295Z" fill="#38CD95"/>
<path d="M289.211 288.133C290.585 264.342 288.491 243.432 276.818 227.887C265.227 212.451 243.603 201.572 204.094 199.29C164.571 197.007 115.34 203.812 75.7066 217.119C55.8869 223.773 38.6391 231.996 26.2381 241.391C13.7858 250.825 6.66143 261.088 6.04406 271.775C5.42669 282.462 11.3219 293.478 22.6051 304.282C33.8418 315.043 50.0279 325.197 68.9496 334.09C106.787 351.871 154.907 364.3 194.43 366.583C233.939 368.866 256.672 360.549 269.963 346.55C283.349 332.453 287.836 311.923 289.211 288.133Z" stroke="black" stroke-opacity="0.5" stroke-width="6"/>
<path d="M403.002 254.512C472.268 294.503 553.784 386.432 529.818 427.941C505.853 469.45 385.482 444.821 316.216 404.83C246.95 364.839 255.018 324.631 278.984 283.122C302.949 241.613 333.736 214.521 403.002 254.512Z" fill="#D20180"/>
<path d="M281.582 284.622C293.497 263.984 306.729 247.659 325.021 241.077C343.184 234.542 367.23 237.323 401.502 257.11C435.787 276.904 473.195 309.626 499.012 342.51C511.923 358.954 521.822 375.298 527.027 389.959C532.254 404.681 532.573 417.17 527.22 426.441C521.868 435.712 510.892 441.681 495.529 444.515C480.23 447.338 461.126 446.937 440.429 443.978C399.042 438.062 352.001 422.026 317.716 402.232C283.443 382.445 269.012 363.011 265.59 344.014C262.144 324.882 269.667 305.26 281.582 284.622Z" stroke="black" stroke-opacity="0.5" stroke-width="6"/>
<path d="M249.586 160.231C180.32 120.24 59.9493 95.6103 35.984 137.119C12.0186 178.629 93.534 270.558 162.8 310.549C232.066 350.54 262.853 323.448 286.819 281.939C310.784 240.43 318.852 200.222 249.586 160.231Z" fill="#24CB01"/>
<path d="M284.22 280.439C296.135 259.801 303.658 240.179 300.212 221.047C296.79 202.05 282.359 182.616 248.087 162.829C213.801 143.035 166.76 126.999 125.373 121.082C104.676 118.124 85.5726 117.723 70.273 120.545C54.9101 123.38 43.9346 129.348 38.582 138.619C33.2294 147.89 33.5481 160.38 38.775 175.102C43.9803 189.763 53.8794 206.107 66.7899 222.551C92.6069 255.435 130.015 288.156 164.3 307.951C198.573 327.738 222.618 330.519 240.781 323.984C259.073 317.402 272.305 301.076 284.22 280.439Z" stroke="black" stroke-opacity="0.5" stroke-width="6"/>
<path d="M324.216 161.233C393.482 121.243 513.852 96.6129 537.818 138.122C561.783 179.631 480.268 271.561 411.002 311.551C341.736 351.542 310.949 324.451 286.983 282.941C263.018 241.432 254.949 201.224 324.216 161.233Z" fill="#FEAD40"/>
<path d="M289.581 281.441C277.666 260.804 270.144 241.182 273.59 222.05C277.012 203.052 291.443 183.619 325.715 163.832C360 144.037 407.042 128.001 448.429 122.085C469.125 119.126 488.229 118.725 503.529 121.548C518.892 124.382 529.867 130.351 535.22 139.622C540.572 148.893 540.254 161.382 535.027 176.104C529.821 190.765 519.922 207.109 507.012 223.554C481.195 256.438 443.787 289.159 409.501 308.953C375.229 328.741 351.184 331.522 333.02 324.986C314.729 318.405 301.497 302.079 289.581 281.441Z" stroke="black" stroke-opacity="0.5" stroke-width="6"/>
<path d="M170.799 253.51C101.533 293.5 20.0176 385.43 43.983 426.939C67.9483 468.448 188.319 443.818 257.585 403.828C326.851 363.837 318.783 323.629 294.818 282.119C270.852 240.61 240.065 213.519 170.799 253.51Z" fill="#64CFE9"/>
<path d="M292.219 283.62C280.304 262.982 267.072 246.656 248.78 240.074C230.617 233.539 206.572 236.32 172.299 256.107C138.014 275.902 100.606 308.623 74.7889 341.507C61.8784 357.952 51.9793 374.296 46.774 388.957C41.5471 403.679 41.2284 416.168 46.581 425.439C51.9336 434.71 62.9091 440.679 78.272 443.513C93.5716 446.336 112.675 445.935 133.372 442.976C174.759 437.06 221.8 421.024 256.086 401.229C290.358 381.442 304.789 362.009 308.211 343.011C311.657 323.879 304.134 304.257 292.219 283.62Z" stroke="black" stroke-opacity="0.5" stroke-width="6"/>
<path d="M296.662 175.17C256.672 105.903 164.742 24.3881 123.233 48.3534C81.7239 72.3187 106.354 192.69 146.344 261.956C186.335 331.222 226.543 323.153 268.053 299.188C309.562 275.223 336.653 244.436 296.662 175.17Z" fill="#B3D803"/>
<path d="M266.553 296.59C287.19 284.675 303.516 271.443 310.098 253.151C316.633 234.988 313.851 210.942 294.064 176.669C274.27 142.384 241.549 104.976 208.665 79.1595C192.22 66.249 175.877 56.3499 161.215 51.1446C146.493 45.9177 134.004 45.599 124.733 50.9516C115.462 56.3042 109.494 67.2797 106.659 82.6426C103.837 97.9423 104.238 117.046 107.196 137.742C113.112 179.129 129.148 226.17 148.942 260.455C168.73 294.728 188.163 309.16 207.161 312.582C226.293 316.028 245.915 308.505 266.553 296.59Z" stroke="black" stroke-opacity="0.5" stroke-width="6"/>
<path d="M411.457 332.585C451.448 401.851 476.077 522.222 434.568 546.187C393.059 570.152 301.13 488.637 261.139 419.371C221.148 350.105 248.24 319.318 289.749 295.352C331.258 271.387 371.466 263.319 411.457 332.585Z" fill="#AF44E5"/>
<path d="M291.249 297.951C311.886 286.036 331.509 278.513 350.641 281.959C369.638 285.381 389.071 299.812 408.859 334.084C428.653 368.37 444.689 415.411 450.605 456.798C453.564 477.495 453.965 496.598 451.142 511.898C448.308 527.261 442.339 538.236 433.068 543.589C423.797 548.941 411.308 548.623 396.586 543.396C381.925 538.191 365.581 528.291 349.137 515.381C316.253 489.564 283.531 452.156 263.737 417.871C243.95 383.598 241.168 359.553 247.704 341.39C254.285 323.098 270.611 309.866 291.249 297.951Z" stroke="black" stroke-opacity="0.5" stroke-width="6"/>
<path d="M277.139 176.172C317.13 106.906 409.059 25.3906 450.568 49.356C492.077 73.3213 467.448 193.692 427.457 262.958C387.466 332.224 347.258 324.156 305.749 300.191C264.24 276.225 237.148 245.438 277.139 176.172Z" fill="#FAD901"/>
<path d="M307.249 297.592C286.611 285.677 270.285 272.445 263.704 254.154C257.168 235.99 259.95 211.944 279.737 177.672C299.532 143.387 332.253 105.979 365.136 80.162C381.581 67.2516 397.925 57.3525 412.586 52.1471C427.308 46.9203 439.797 46.6016 449.068 51.9542C458.339 57.3068 464.308 68.2822 467.142 83.6452C469.965 98.9448 469.564 118.049 466.605 138.745C460.689 180.132 444.653 227.173 424.859 261.458C405.072 295.73 385.638 310.162 366.641 313.584C347.509 317.03 327.886 309.508 307.249 297.592Z" stroke="black" stroke-opacity="0.5" stroke-width="6"/>
<path d="M163.86 332.585C123.869 401.851 99.2396 522.222 140.749 546.187C182.258 570.153 274.187 488.637 314.178 419.371C354.169 350.105 327.077 319.318 285.568 295.353C244.059 271.387 203.851 263.319 163.86 332.585Z" fill="#208CF9"/>
<path d="M284.068 297.951C263.43 286.036 243.808 278.513 224.676 281.959C205.679 285.381 186.245 299.812 166.458 334.085C146.664 368.37 130.628 415.411 124.712 456.798C121.753 477.495 121.352 496.599 124.175 511.898C127.009 527.261 132.978 538.237 142.249 543.589C151.52 548.942 164.009 548.623 178.731 543.396C193.392 538.191 209.736 528.292 226.18 515.381C259.064 489.564 291.786 452.156 311.58 417.871C331.367 383.598 334.148 359.553 327.613 341.39C321.032 323.098 304.706 309.866 284.068 297.951Z" stroke="black" stroke-opacity="0.5" stroke-width="6"/>
<path d="M197.957 196.287C201.708 116.394 245.988 1.78554 293.866 4.0337C341.744 6.28186 375.089 124.535 371.338 204.429C367.586 284.322 328.158 295.602 280.281 293.354C232.403 291.106 194.205 276.181 197.957 196.287Z" fill="#F3E805"/>
<path d="M280.421 290.357C256.617 289.239 236.04 284.973 221.799 271.74C207.659 258.6 199.097 235.959 200.953 196.428C202.81 156.883 214.72 108.631 232.092 70.604C240.78 51.5876 250.76 35.293 261.398 23.9409C272.081 12.5419 283.032 6.52823 293.725 7.03035C304.419 7.53247 314.758 14.5459 324.325 26.8957C333.853 39.1947 342.262 56.3528 349.13 76.0996C362.862 115.587 370.198 164.743 368.341 204.288C366.485 243.819 355.839 265.558 340.53 277.315C325.112 289.155 304.225 291.475 280.421 290.357Z" stroke="black" stroke-opacity="0.5" stroke-width="6"/>
<path d="M373.163 374.059C373.163 454.041 334.307 570.6 286.376 570.6C238.446 570.6 199.59 454.041 199.59 374.059C199.59 294.078 238.446 280.961 286.376 280.961C334.307 280.961 373.163 294.078 373.163 374.059Z" fill="#63B3FA"/>
<path d="M286.376 283.961C310.207 283.961 330.961 287.258 345.807 299.808C360.548 312.27 370.163 334.485 370.163 374.059C370.163 413.648 360.529 462.405 344.959 501.206C337.173 520.609 327.969 537.353 317.875 549.192C307.738 561.079 297.082 567.6 286.376 567.6C275.671 567.6 265.014 561.079 254.878 549.192C244.784 537.353 235.58 520.609 227.793 501.206C212.224 462.405 202.59 413.648 202.59 374.059C202.59 334.485 212.205 312.27 226.946 299.808C241.792 287.258 262.546 283.961 286.376 283.961Z" stroke="black" stroke-opacity="0.5" stroke-width="6"/>
<g style="mix-blend-mode:darken">
<mask id="path-25-outside-1_217_737" maskUnits="userSpaceOnUse" x="179" y="85" width="243" height="392" fill="black">
<rect fill="white" x="179" y="85" width="243" height="392"/>
<path d="M255.66 105.795C272.293 99.4229 278.502 99.3797 283.937 105.795C288.906 112.96 288.109 118.225 286.788 127.992C286.741 128.334 286.651 128.671 286.52 128.989L250.02 217.31C249.491 218.589 249.661 220.049 250.469 221.173L318.493 315.797C320.012 317.91 323.113 318.033 324.795 316.046L331.085 308.613C331.478 308.148 331.763 307.592 331.909 307.001C336.189 289.687 335.567 280.93 329.164 268.098C328.992 267.754 328.766 267.433 328.501 267.154C316.881 254.934 305.139 246.253 294.599 246.253H284.405C281.669 246.253 279.838 243.367 282.185 241.963C284.065 240.838 286.716 240.212 290.427 239.763H350.357C350.578 239.763 350.804 239.744 351.021 239.707C376.819 235.38 385.528 231.055 392.993 221.213C393.221 220.913 393.405 220.573 393.535 220.219C397.237 210.104 396.931 205.904 393.607 200.77C393.43 200.497 393.211 200.246 392.967 200.031C387.469 195.17 382.417 193.284 376.647 193.14C372.942 193.047 370.515 188.817 373.77 187.046C374.539 186.627 375.352 186.251 376.244 185.879C376.812 185.642 377.434 185.553 378.047 185.61C390.028 186.726 395.362 189.446 402.14 196.617C402.45 196.945 402.701 197.329 402.878 197.744C406.78 206.862 407.445 212.489 405.452 222.751C405.411 222.965 405.351 223.177 405.273 223.379C401.202 233.868 390.047 243.448 385.456 246.253C381.23 248.835 370.552 253.481 358.425 257.942C356.43 258.676 355.355 260.824 355.85 262.89C357.391 269.309 357.637 275.193 356.715 286.582C355.665 295.686 354.536 301.068 350.688 311.614C347.488 321.318 342.952 326.327 334.211 333.633C332.75 334.854 332.322 336.93 333.211 338.614L340.49 352.407C347.356 369.19 346.732 401.772 345.59 407.106C344.199 413.596 335.115 429.284 321.484 442.801C313.238 451.694 292.39 462.216 288.129 461.514C287.784 461.458 287.535 461.202 287.277 460.967C286.155 459.944 285.391 460.298 284.111 456.744C283.993 456.415 283.925 456.064 283.903 455.715C283.016 441.312 284.515 430.944 290.184 416.972C290.343 416.58 290.57 416.21 290.845 415.889C300.196 404.966 306.181 399.088 318.176 390.339C318.522 390.086 318.833 389.776 319.08 389.426C324.385 381.921 325.933 377.304 325.193 368.632C323.936 357.446 321.647 351.905 316.135 344.707C315.178 343.456 313.551 342.934 312.026 343.326C285.23 350.224 269.404 351.305 241.753 349.626C224.127 348.034 215.385 345.654 204.438 335.926C204.284 335.79 204.138 335.637 204.008 335.478C198.648 328.923 195.981 325.004 194.471 316.714C193.343 302.28 194.187 294.742 197.614 282.312C197.68 282.071 197.771 281.833 197.881 281.609L230.964 214.55C231.614 213.233 231.49 211.667 230.641 210.468L216.461 190.449C216.326 190.258 216.206 190.054 216.107 189.842C212.872 182.966 211.351 178.955 210.231 171.62C209.278 158.64 210.742 151.143 216.039 137.863C216.183 137.504 216.383 137.159 216.624 136.857C229.381 120.871 237.922 114.005 255.66 105.795ZM227.383 271.748C223.676 278.583 223.055 284.41 223.651 296.765C223.666 297.08 223.721 297.401 223.811 297.703C227.738 310.816 232.505 316.985 244.534 325.984C256.696 332.715 265.34 334.802 283.417 335.694C283.758 335.71 284.11 335.682 284.444 335.612C293.377 333.722 299.015 332.428 302.542 330.629C304.253 329.757 304.506 327.599 303.462 325.987L247.324 239.266C245.565 236.548 241.473 236.938 240.259 239.939L227.383 271.748ZM268.107 135.547C269.493 132.603 266.966 129.354 263.861 130.329C254.608 133.236 247.859 138.428 237.798 149.592C237.656 149.75 237.522 149.925 237.407 150.104C231.802 158.866 229.752 165.295 227.53 177.744C227.432 178.288 227.45 178.853 227.584 179.389C229.351 186.467 231.004 190.903 233.826 195.287C235.414 197.755 239.021 197.303 240.272 194.648L268.107 135.547Z"/>
</mask>
<path d="M255.66 105.795C272.293 99.4229 278.502 99.3797 283.937 105.795C288.906 112.96 288.109 118.225 286.788 127.992C286.741 128.334 286.651 128.671 286.52 128.989L250.02 217.31C249.491 218.589 249.661 220.049 250.469 221.173L318.493 315.797C320.012 317.91 323.113 318.033 324.795 316.046L331.085 308.613C331.478 308.148 331.763 307.592 331.909 307.001C336.189 289.687 335.567 280.93 329.164 268.098C328.992 267.754 328.766 267.433 328.501 267.154C316.881 254.934 305.139 246.253 294.599 246.253H284.405C281.669 246.253 279.838 243.367 282.185 241.963C284.065 240.838 286.716 240.212 290.427 239.763H350.357C350.578 239.763 350.804 239.744 351.021 239.707C376.819 235.38 385.528 231.055 392.993 221.213C393.221 220.913 393.405 220.573 393.535 220.219C397.237 210.104 396.931 205.904 393.607 200.77C393.43 200.497 393.211 200.246 392.967 200.031C387.469 195.17 382.417 193.284 376.647 193.14C372.942 193.047 370.515 188.817 373.77 187.046C374.539 186.627 375.352 186.251 376.244 185.879C376.812 185.642 377.434 185.553 378.047 185.61C390.028 186.726 395.362 189.446 402.14 196.617C402.45 196.945 402.701 197.329 402.878 197.744C406.78 206.862 407.445 212.489 405.452 222.751C405.411 222.965 405.351 223.177 405.273 223.379C401.202 233.868 390.047 243.448 385.456 246.253C381.23 248.835 370.552 253.481 358.425 257.942C356.43 258.676 355.355 260.824 355.85 262.89C357.391 269.309 357.637 275.193 356.715 286.582C355.665 295.686 354.536 301.068 350.688 311.614C347.488 321.318 342.952 326.327 334.211 333.633C332.75 334.854 332.322 336.93 333.211 338.614L340.49 352.407C347.356 369.19 346.732 401.772 345.59 407.106C344.199 413.596 335.115 429.284 321.484 442.801C313.238 451.694 292.39 462.216 288.129 461.514C287.784 461.458 287.535 461.202 287.277 460.967C286.155 459.944 285.391 460.298 284.111 456.744C283.993 456.415 283.925 456.064 283.903 455.715C283.016 441.312 284.515 430.944 290.184 416.972C290.343 416.58 290.57 416.21 290.845 415.889C300.196 404.966 306.181 399.088 318.176 390.339C318.522 390.086 318.833 389.776 319.08 389.426C324.385 381.921 325.933 377.304 325.193 368.632C323.936 357.446 321.647 351.905 316.135 344.707C315.178 343.456 313.551 342.934 312.026 343.326C285.23 350.224 269.404 351.305 241.753 349.626C224.127 348.034 215.385 345.654 204.438 335.926C204.284 335.79 204.138 335.637 204.008 335.478C198.648 328.923 195.981 325.004 194.471 316.714C193.343 302.28 194.187 294.742 197.614 282.312C197.68 282.071 197.771 281.833 197.881 281.609L230.964 214.55C231.614 213.233 231.49 211.667 230.641 210.468L216.461 190.449C216.326 190.258 216.206 190.054 216.107 189.842C212.872 182.966 211.351 178.955 210.231 171.62C209.278 158.64 210.742 151.143 216.039 137.863C216.183 137.504 216.383 137.159 216.624 136.857C229.381 120.871 237.922 114.005 255.66 105.795ZM227.383 271.748C223.676 278.583 223.055 284.41 223.651 296.765C223.666 297.08 223.721 297.401 223.811 297.703C227.738 310.816 232.505 316.985 244.534 325.984C256.696 332.715 265.34 334.802 283.417 335.694C283.758 335.71 284.11 335.682 284.444 335.612C293.377 333.722 299.015 332.428 302.542 330.629C304.253 329.757 304.506 327.599 303.462 325.987L247.324 239.266C245.565 236.548 241.473 236.938 240.259 239.939L227.383 271.748ZM268.107 135.547C269.493 132.603 266.966 129.354 263.861 130.329C254.608 133.236 247.859 138.428 237.798 149.592C237.656 149.75 237.522 149.925 237.407 150.104C231.802 158.866 229.752 165.295 227.53 177.744C227.432 178.288 227.45 178.853 227.584 179.389C229.351 186.467 231.004 190.903 233.826 195.287C235.414 197.755 239.021 197.303 240.272 194.648L268.107 135.547Z" fill="white"/>
<path d="M255.66 105.795L250.294 91.7876L249.82 91.9691L249.36 92.1821L255.66 105.795ZM283.937 105.795L296.262 97.2463L295.85 96.6516L295.382 96.0993L283.937 105.795ZM294.599 246.253L294.599 231.253H294.599V246.253ZM290.427 239.763V224.763H289.521L288.622 224.872L290.427 239.763ZM385.456 246.253L393.276 259.053L393.276 259.053L385.456 246.253ZM356.715 286.582L371.616 288.3L371.645 288.046L371.666 287.792L356.715 286.582ZM350.688 311.614L336.597 306.473L336.517 306.694L336.443 306.917L350.688 311.614ZM340.49 352.407L354.373 346.728L354.097 346.052L353.756 345.406L340.49 352.407ZM345.59 407.106L360.257 410.249L360.257 410.248L345.59 407.106ZM321.484 442.801L310.922 432.15L310.699 432.371L310.485 432.602L321.484 442.801ZM325.193 368.632L340.139 367.357L340.122 367.156L340.099 366.956L325.193 368.632ZM241.753 349.626L240.403 364.565L240.623 364.585L240.844 364.598L241.753 349.626ZM194.471 316.714L179.516 317.882L179.576 318.647L179.714 319.402L194.471 316.714ZM210.231 171.62L195.272 172.719L195.315 173.304L195.403 173.883L210.231 171.62ZM227.383 271.748L240.568 278.899L240.97 278.158L241.287 277.376L227.383 271.748ZM244.534 325.984L235.549 337.995L236.372 338.611L237.271 339.109L244.534 325.984ZM227.53 177.744L212.763 175.107L227.53 177.744ZM227.584 179.389L213.031 183.022L227.584 179.389ZM237.798 149.592L248.941 159.634L237.798 149.592ZM237.407 150.104L250.043 158.187L237.407 150.104ZM263.861 130.329L259.366 116.019L263.861 130.329ZM268.107 135.547L254.536 129.156L268.107 135.547ZM247.324 239.266L234.732 247.418L247.324 239.266ZM302.542 330.629L309.357 343.992L302.542 330.629ZM303.462 325.987L290.87 334.138L303.462 325.987ZM283.417 335.694L284.156 320.712L283.417 335.694ZM284.444 335.612L287.548 350.287L284.444 335.612ZM223.651 296.765L238.634 296.042L223.651 296.765ZM223.811 297.703L238.181 293.4L223.811 297.703ZM216.039 137.863L229.972 143.42L216.039 137.863ZM216.624 136.857L204.9 127.501L216.624 136.857ZM216.461 190.449L204.221 199.119L216.461 190.449ZM216.107 189.842L229.68 183.457L216.107 189.842ZM204.438 335.926L194.474 347.139L204.438 335.926ZM204.008 335.478L192.396 344.974L204.008 335.478ZM316.135 344.707L304.226 353.826L316.135 344.707ZM312.026 343.326L308.286 328.8L312.026 343.326ZM334.211 333.633L324.591 322.124L334.211 333.633ZM333.211 338.614L346.476 331.613L333.211 338.614ZM358.425 257.942L353.246 243.864L358.425 257.942ZM405.452 222.751L420.177 225.61L405.452 222.751ZM405.273 223.379L391.289 217.952L405.273 223.379ZM402.14 196.617L413.041 186.314L402.14 196.617ZM402.878 197.744L389.088 203.644L402.878 197.744ZM230.964 214.55L244.416 221.187L230.964 214.55ZM230.641 210.468L218.401 219.139L230.641 210.468ZM393.607 200.77L406.197 192.616L393.607 200.77ZM392.967 200.031L383.032 211.269L392.967 200.031ZM197.881 281.609L211.333 288.245L197.881 281.609ZM392.993 221.213L404.944 230.279L392.993 221.213ZM393.535 220.219L379.449 215.062L393.535 220.219ZM351.021 239.707L348.54 224.914L351.021 239.707ZM282.185 241.963L289.886 254.835L282.185 241.963ZM329.164 268.098L342.586 261.401L329.164 268.098ZM328.501 267.154L317.632 277.491L328.501 267.154ZM318.176 390.339L327.016 402.457L318.176 390.339ZM319.08 389.426L331.329 398.084L319.08 389.426ZM331.085 308.613L342.535 318.302L331.085 308.613ZM331.909 307.001L346.471 310.601L331.909 307.001ZM290.184 416.972L304.083 422.612L290.184 416.972ZM290.845 415.889L279.45 406.134L290.845 415.889ZM318.493 315.797L306.314 324.553L318.493 315.797ZM324.795 316.046L336.245 325.736L324.795 316.046ZM376.244 185.879L370.469 172.035L376.244 185.879ZM378.047 185.61L379.437 170.675L378.047 185.61ZM284.111 456.744L269.998 461.826L284.111 456.744ZM283.903 455.715L298.875 454.793L283.903 455.715ZM250.02 217.31L263.882 223.039L250.02 217.31ZM250.469 221.173L238.289 229.928L250.469 221.173ZM376.647 193.14L377.023 178.144L376.647 193.14ZM373.77 187.046L366.601 173.87L373.77 187.046ZM288.129 461.514L285.69 476.315L288.129 461.514ZM287.277 460.967L277.173 472.053L287.277 460.967ZM286.788 127.992L271.923 125.981L286.788 127.992ZM286.52 128.989L300.383 134.718L286.52 128.989ZM255.66 105.795L261.026 119.802C264.957 118.296 267.91 117.306 270.188 116.7C272.501 116.085 273.63 116 274.017 116C274.225 115.999 273.675 116.016 272.887 115.624C272.178 115.271 272.046 114.965 272.491 115.491L283.937 105.795L295.382 96.0993C293.11 93.4177 290.164 90.7105 286.242 88.7608C282.242 86.7722 278.081 85.9946 273.979 85.9997C266.609 86.0089 258.565 88.6192 250.294 91.7876L255.66 105.795ZM283.937 105.795L271.611 114.344C272.247 115.26 272.479 115.798 272.573 116.054C272.656 116.282 272.726 116.548 272.763 117.037C272.806 117.608 272.804 118.498 272.662 120.031C272.515 121.621 272.27 123.418 271.923 125.981L286.788 127.992L301.652 130.004C302.236 125.69 303.08 120.153 302.679 114.798C302.209 108.508 300.158 102.864 296.262 97.2463L283.937 105.795ZM286.52 128.989L272.657 123.26L236.157 211.581L250.02 217.31L263.882 223.039L300.383 134.718L286.52 128.989ZM250.469 221.173L238.289 229.928L306.314 324.553L318.493 315.797L330.673 307.042L262.648 212.417L250.469 221.173ZM324.795 316.046L336.245 325.736L342.535 318.302L331.085 308.613L319.634 298.923L313.344 306.357L324.795 316.046ZM331.909 307.001L346.471 310.601C348.757 301.35 350.088 293.064 349.505 284.812C348.903 276.292 346.35 268.945 342.586 261.401L329.164 268.098L315.742 274.796C318.38 280.083 319.34 283.531 319.58 286.926C319.839 290.589 319.341 295.338 317.347 303.401L331.909 307.001ZM328.501 267.154L339.371 256.818C333.134 250.258 326.377 244.118 319.303 239.533C312.347 235.025 303.906 231.253 294.599 231.253L294.599 246.253L294.599 261.253C295.832 261.253 298.532 261.821 302.987 264.708C307.324 267.519 312.248 271.83 317.632 277.491L328.501 267.154ZM294.599 246.253V231.253H284.405V246.253V261.253H294.599V246.253ZM282.185 241.963L289.886 254.835C289.236 255.224 288.926 255.248 289.386 255.129C289.851 255.008 290.717 254.837 292.231 254.654L290.427 239.763L288.622 224.872C284.645 225.354 279.26 226.233 274.483 229.091L282.185 241.963ZM290.427 239.763V254.763H350.357V239.763V224.763H290.427V239.763ZM351.021 239.707L353.502 254.5C366.646 252.296 376.861 249.888 385.04 246.206C393.906 242.214 399.867 236.972 404.944 230.279L392.993 221.213L381.043 212.148C378.654 215.297 376.528 217.138 372.724 218.851C368.232 220.873 361.193 222.791 348.54 224.914L351.021 239.707ZM393.535 220.219L407.62 225.376C409.629 219.889 411.262 214.227 411.205 208.478C411.14 201.919 408.931 196.839 406.197 192.616L393.607 200.77L381.016 208.924C381.406 209.525 381.406 209.64 381.335 209.434C381.239 209.154 381.208 208.877 381.207 208.775C381.206 208.761 381.213 209.172 380.964 210.244C380.711 211.335 380.252 212.869 379.449 215.062L393.535 220.219ZM392.967 200.031L402.903 188.793C395.006 181.811 386.637 178.386 377.023 178.144L376.647 193.14L376.27 208.135C378.196 208.183 379.933 208.529 383.032 211.269L392.967 200.031ZM373.77 187.046L380.94 200.221C381.132 200.117 381.453 199.959 382.019 199.723L376.244 185.879L370.469 172.035C369.252 172.542 367.947 173.138 366.601 173.87L373.77 187.046ZM378.047 185.61L376.656 200.545C381.828 201.027 384.234 201.751 385.703 202.437C387.038 203.059 388.566 204.093 391.239 206.921L402.14 196.617L413.041 186.314C408.936 181.971 404.408 178.059 398.386 175.249C392.499 172.503 386.247 171.309 379.437 170.675L378.047 185.61ZM402.878 197.744L389.088 203.644C390.725 207.471 391.271 209.621 391.459 211.395C391.648 213.188 391.571 215.545 390.727 219.892L405.452 222.751L420.177 225.61C421.326 219.694 421.913 214.108 421.292 208.241C420.67 202.357 418.933 197.134 416.669 191.843L402.878 197.744ZM405.273 223.379L391.289 217.952C390.254 220.62 387.912 223.984 384.708 227.342C381.53 230.672 378.589 232.87 377.636 233.453L385.456 246.253L393.276 259.053C396.914 256.831 401.847 252.836 406.411 248.053C410.95 243.297 416.221 236.628 419.256 228.807L405.273 223.379ZM385.456 246.253L377.636 233.453C374.81 235.179 365.405 239.391 353.246 243.864L358.425 257.942L363.604 272.02C375.698 267.57 387.651 262.49 393.276 259.053L385.456 246.253ZM355.85 262.89L341.264 266.39C342.27 270.582 342.631 274.658 341.764 285.372L356.715 286.582L371.666 287.792C372.642 275.728 372.511 268.037 370.436 259.39L355.85 262.89ZM356.715 286.582L341.814 284.864C340.896 292.824 340.033 297.056 336.597 306.473L350.688 311.614L364.78 316.756C369.04 305.08 370.435 298.548 371.616 288.3L356.715 286.582ZM350.688 311.614L336.443 306.917C334.491 312.837 332.326 315.659 324.591 322.124L334.211 333.633L343.83 345.143C353.578 336.996 360.486 329.8 364.934 316.312L350.688 311.614ZM333.211 338.614L319.945 345.615L327.224 359.408L340.49 352.407L353.756 345.406L346.476 331.613L333.211 338.614ZM340.49 352.407L326.607 358.087C329.024 363.994 330.517 374.181 331.063 384.818C331.322 389.873 331.347 394.576 331.246 398.257C331.132 402.402 330.883 404.151 330.923 403.965L345.59 407.106L360.257 410.248C360.868 407.395 361.125 403.071 361.235 399.082C361.357 394.629 361.324 389.137 361.023 383.282C360.45 372.098 358.822 357.603 354.373 346.728L340.49 352.407ZM345.59 407.106L330.923 403.964C330.941 403.877 330.699 404.83 329.661 406.967C328.709 408.927 327.33 411.388 325.527 414.18C321.913 419.776 316.904 426.218 310.922 432.15L321.484 442.801L332.046 453.452C339.696 445.866 346.045 437.707 350.727 430.457C355.094 423.697 358.968 416.266 360.257 410.249L345.59 407.106ZM321.484 442.801L310.485 432.602C308.049 435.229 302.504 439.149 296.191 442.554C293.212 444.161 290.547 445.389 288.617 446.128C287.633 446.504 287.097 446.655 286.956 446.689C286.318 446.841 287.986 446.288 290.568 446.714L288.129 461.514L285.69 476.315C289.337 476.916 292.588 476.188 293.938 475.865C295.785 475.423 297.641 474.797 299.34 474.146C302.775 472.832 306.637 471.005 310.433 468.958C317.671 465.054 326.673 459.266 332.484 453L321.484 442.801ZM287.277 460.967L297.382 449.881C296.147 448.755 294.98 448.008 294.806 447.892C294.574 447.738 295.406 448.258 296.276 449.115C296.715 449.547 297.095 449.99 297.416 450.421C297.728 450.841 297.947 451.2 298.088 451.452C298.345 451.914 298.375 452.08 298.224 451.662L284.111 456.744L269.998 461.826C270.922 464.392 272.37 467.678 275.231 470.495C276.593 471.835 277.905 472.681 278.173 472.859C278.498 473.075 277.847 472.667 277.173 472.053L287.277 460.967ZM283.903 455.715L298.875 454.793C298.119 442.529 299.295 434.412 304.083 422.612L290.184 416.972L276.285 411.332C269.734 427.475 267.913 440.095 268.931 456.637L283.903 455.715ZM290.845 415.889L302.239 425.645C310.967 415.45 316.114 410.41 327.016 402.457L318.176 390.339L309.336 378.22C296.249 387.767 289.426 394.482 279.45 406.134L290.845 415.889ZM319.08 389.426L331.329 398.084C334.354 393.805 337.125 389.235 338.765 383.797C340.451 378.203 340.606 372.833 340.139 367.357L325.193 368.632L310.248 369.906C310.52 373.103 310.271 374.377 310.042 375.137C309.766 376.051 309.111 377.542 306.832 380.767L319.08 389.426ZM325.193 368.632L340.099 366.956C339.393 360.676 338.308 355.108 336.258 349.783C334.167 344.356 331.358 339.914 328.045 335.588L316.135 344.707L304.226 353.826C306.424 356.697 307.515 358.625 308.261 360.564C309.048 362.606 309.736 365.401 310.287 370.308L325.193 368.632ZM312.026 343.326L308.286 328.8C283.2 335.257 268.961 336.25 242.662 334.654L241.753 349.626L240.844 364.598C269.846 366.359 287.26 365.19 315.765 357.853L312.026 343.326ZM241.753 349.626L243.103 334.687C234.529 333.912 229.467 333.038 225.535 331.665C221.976 330.423 218.714 328.546 214.401 324.713L204.438 335.926L194.474 347.139C201.108 353.034 207.691 357.211 215.647 359.989C223.229 362.636 231.351 363.747 240.403 364.565L241.753 349.626ZM204.008 335.478L215.62 325.983C212.983 322.758 211.79 321.099 211.005 319.64C210.357 318.436 209.757 316.931 209.228 314.025L194.471 316.714L179.714 319.402C180.695 324.787 182.183 329.387 184.586 333.854C186.852 338.066 189.673 341.644 192.396 344.974L204.008 335.478ZM194.471 316.714L209.425 315.545C208.432 302.831 209.114 297.038 212.074 286.298L197.614 282.312L183.153 278.326C179.261 292.447 178.254 301.729 179.516 317.882L194.471 316.714ZM197.881 281.609L211.333 288.245L244.416 221.187L230.964 214.55L217.512 207.914L184.429 274.972L197.881 281.609ZM230.641 210.468L242.882 201.798L228.701 181.779L216.461 190.449L204.221 199.119L218.401 219.139L230.641 210.468ZM216.107 189.842L229.68 183.457C226.82 177.378 225.89 174.798 225.06 169.357L210.231 171.62L195.403 173.883C196.812 183.112 198.924 188.554 202.534 196.227L216.107 189.842ZM210.231 171.62L225.191 170.521C224.775 164.853 224.932 161.042 225.563 157.458C226.215 153.763 227.484 149.656 229.972 143.42L216.039 137.863L202.107 132.305C199.297 139.349 197.186 145.631 196.019 152.25C194.833 158.98 194.734 165.407 195.272 172.719L210.231 171.62ZM216.624 136.857L228.349 146.213C234.382 138.653 238.91 133.898 243.625 130.139C248.304 126.408 253.716 123.223 261.96 119.408L255.66 105.795L249.36 92.1821C239.866 96.5762 232.138 100.93 224.924 106.681C217.744 112.404 211.624 119.075 204.9 127.501L216.624 136.857ZM227.383 271.748L214.197 264.597C208.475 275.147 208.037 284.4 208.669 297.489L223.651 296.765L238.634 296.042C238.073 284.42 238.876 282.02 240.568 278.899L227.383 271.748ZM223.811 297.703L209.442 302.006C211.711 309.586 214.525 316.157 219.076 322.308C223.53 328.328 229.063 333.144 235.549 337.995L244.534 325.984L253.52 313.974C247.976 309.826 245.111 307.057 243.192 304.464C241.371 302.003 239.838 298.934 238.181 293.4L223.811 297.703ZM244.534 325.984L237.271 339.109C252.005 347.262 263.063 349.708 282.679 350.675L283.417 335.694L284.156 320.712C267.618 319.897 261.388 318.168 251.797 312.86L244.534 325.984ZM284.444 335.612L287.548 350.287C295.667 348.569 303.644 346.905 309.357 343.992L302.542 330.629L295.726 317.267C294.387 317.95 291.087 318.874 281.339 320.936L284.444 335.612ZM303.462 325.987L316.054 317.836L259.916 231.115L247.324 239.266L234.732 247.418L290.87 334.138L303.462 325.987ZM240.259 239.939L226.355 234.311L213.479 266.12L227.383 271.748L241.287 277.376L254.163 245.567L240.259 239.939ZM263.861 130.329L259.366 116.019C246.354 120.105 237.422 127.604 226.656 139.55L237.798 149.592L248.941 159.634C258.297 149.252 262.862 146.366 268.356 144.64L263.861 130.329ZM237.407 150.104L224.771 142.022C217.745 153.005 215.191 161.511 212.763 175.107L227.53 177.744L242.296 180.38C244.314 169.078 245.86 164.727 250.043 158.187L237.407 150.104ZM227.584 179.389L213.031 183.022C214.988 190.86 217.135 197.069 221.212 203.404L233.826 195.287L246.44 187.17C244.873 184.736 243.715 182.074 242.137 175.756L227.584 179.389ZM240.272 194.648L253.842 201.039L281.677 141.938L268.107 135.547L254.536 129.156L226.701 188.256L240.272 194.648ZM233.826 195.287L221.212 203.404C230.112 217.235 248.325 212.753 253.842 201.039L240.272 194.648L226.701 188.256C228.387 184.678 231.814 182.383 235.555 181.976C239.469 181.551 243.907 183.234 246.44 187.17L233.826 195.287ZM227.53 177.744L212.763 175.107C212.299 177.707 212.378 180.409 213.031 183.022L227.584 179.389L242.137 175.756C242.522 177.296 242.566 178.869 242.296 180.38L227.53 177.744ZM237.798 149.592L226.656 139.55C225.977 140.302 225.341 141.131 224.771 142.022L237.407 150.104L250.043 158.187C249.703 158.719 249.334 159.198 248.941 159.634L237.798 149.592ZM263.861 130.329L268.356 144.64C263.537 146.154 258.659 144.219 255.955 140.838C253.383 137.624 252.686 133.085 254.536 129.156L268.107 135.547L281.677 141.938C284.914 135.065 283.646 127.429 279.382 122.098C274.984 116.601 267.29 113.53 259.366 116.019L263.861 130.329ZM247.324 239.266L259.916 231.115C251.559 218.204 232.125 220.055 226.355 234.311L240.259 239.939L254.163 245.567C250.822 253.821 239.571 254.892 234.732 247.418L247.324 239.266ZM302.542 330.629L309.357 343.992C321.319 337.891 320.388 324.53 316.054 317.836L303.462 325.987L290.87 334.138C289.49 332.007 288.714 329.159 289.253 326.035C289.838 322.648 292.005 319.165 295.726 317.267L302.542 330.629ZM283.417 335.694L282.679 350.675C284.313 350.756 285.956 350.624 287.548 350.287L284.444 335.612L281.339 320.936C282.264 320.741 283.204 320.665 284.156 320.712L283.417 335.694ZM223.651 296.765L208.669 297.489C208.741 298.995 208.996 300.519 209.442 302.006L223.811 297.703L238.181 293.4C238.445 294.284 238.591 295.166 238.634 296.042L223.651 296.765ZM216.039 137.863L229.972 143.42C229.567 144.436 229.022 145.37 228.349 146.213L216.624 136.857L204.9 127.501C203.745 128.948 202.799 130.571 202.107 132.305L216.039 137.863ZM216.461 190.449L228.701 181.779C229.077 182.309 229.403 182.869 229.68 183.457L216.107 189.842L202.534 196.227C203.01 197.238 203.575 198.208 204.221 199.119L216.461 190.449ZM204.438 335.926L214.401 324.713C214.855 325.117 215.258 325.54 215.62 325.983L204.008 335.478L192.396 344.974C193.018 345.734 193.713 346.463 194.474 347.139L204.438 335.926ZM316.135 344.707L328.045 335.588C323.249 329.324 315.348 326.982 308.286 328.8L312.026 343.326L315.765 357.853C311.753 358.885 307.107 357.589 304.226 353.826L316.135 344.707ZM334.211 333.633L324.591 322.124C317.802 327.798 315.692 337.557 319.945 345.615L333.211 338.614L346.476 331.613C348.952 336.303 347.697 341.911 343.83 345.143L334.211 333.633ZM358.425 257.942L353.246 243.864C343.708 247.373 339.096 257.353 341.264 266.39L355.85 262.89L370.436 259.39C371.613 264.294 369.153 269.978 363.604 272.02L358.425 257.942ZM405.452 222.751L390.727 219.892C390.84 219.312 391.016 218.657 391.289 217.952L405.273 223.379L419.256 228.807C419.687 227.697 419.982 226.618 420.177 225.61L405.452 222.751ZM402.14 196.617L391.239 206.921C390.323 205.952 389.601 204.843 389.088 203.644L402.878 197.744L416.669 191.843C415.802 189.816 414.576 187.937 413.041 186.314L402.14 196.617ZM230.964 214.55L244.416 221.187C247.502 214.932 246.913 207.49 242.882 201.798L230.641 210.468L218.401 219.139C216.067 215.844 215.726 211.535 217.512 207.914L230.964 214.55ZM393.607 200.77L406.197 192.616C405.251 191.156 404.128 189.876 402.903 188.793L392.967 200.031L383.032 211.269C382.295 210.617 381.608 209.838 381.016 208.924L393.607 200.77ZM197.614 282.312L212.074 286.298C211.889 286.971 211.642 287.621 211.333 288.245L197.881 281.609L184.429 274.972C183.9 276.046 183.471 277.171 183.153 278.326L197.614 282.312ZM392.993 221.213L404.944 230.279C406.103 228.751 406.994 227.085 407.62 225.376L393.535 220.219L379.449 215.062C379.816 214.06 380.339 213.076 381.043 212.148L392.993 221.213ZM350.357 239.763V254.763C351.424 254.763 352.48 254.672 353.502 254.5L351.021 239.707L348.54 224.914C349.127 224.815 349.731 224.763 350.357 224.763V239.763ZM284.405 246.253V231.253C288.077 231.253 292.119 233.131 294.45 237.259C295.702 239.476 296.689 242.893 295.719 246.822C294.708 250.917 292.08 253.523 289.886 254.835L282.185 241.963L274.483 229.091C271.116 231.106 267.837 234.598 266.594 239.629C265.393 244.494 266.569 248.896 268.327 252.01C271.671 257.932 277.997 261.253 284.405 261.253V246.253ZM329.164 268.098L342.586 261.401C341.744 259.715 340.656 258.169 339.371 256.818L328.501 267.154L317.632 277.491C316.877 276.697 316.24 275.794 315.742 274.796L329.164 268.098ZM318.176 390.339L327.016 402.457C328.614 401.291 330.096 399.829 331.329 398.084L319.08 389.426L306.832 380.767C307.57 379.723 308.43 378.881 309.336 378.22L318.176 390.339ZM331.085 308.613L342.535 318.302C344.413 316.083 345.767 313.445 346.471 310.601L331.909 307.001L317.347 303.401C317.758 301.739 318.543 300.213 319.634 298.923L331.085 308.613ZM290.184 416.972L304.083 422.612C303.624 423.744 302.997 424.759 302.239 425.645L290.845 415.889L279.45 406.134C278.142 407.662 277.062 409.417 276.285 411.332L290.184 416.972ZM318.493 315.797L306.314 324.553C313.53 334.591 328.259 335.173 336.245 325.736L324.795 316.046L313.344 306.357C317.967 300.893 326.495 301.23 330.673 307.042L318.493 315.797ZM376.244 185.879L382.019 199.723C380.231 200.468 378.384 200.706 376.656 200.545L378.047 185.61L379.437 170.675C376.484 170.4 373.392 170.815 370.469 172.035L376.244 185.879ZM284.111 456.744L298.224 451.662C298.627 452.782 298.816 453.844 298.875 454.793L283.903 455.715L268.931 456.637C269.033 458.285 269.358 460.048 269.998 461.826L284.111 456.744ZM250.02 217.31L236.157 211.581C233.647 217.654 234.453 224.593 238.289 229.928L250.469 221.173L262.648 212.417C264.869 215.506 265.336 219.523 263.882 223.039L250.02 217.31ZM376.647 193.14L377.023 178.144C380.638 178.235 384.088 180.261 385.941 183.869C386.94 185.813 387.793 188.941 386.82 192.594C385.777 196.507 383.177 199.004 380.94 200.221L373.77 187.046L366.601 173.87C362.736 175.973 359.219 179.663 357.831 184.871C356.513 189.817 357.594 194.34 359.256 197.576C362.434 203.764 368.95 207.951 376.27 208.135L376.647 193.14ZM288.129 461.514L290.568 446.714C293.491 447.196 295.519 448.466 296.514 449.192C297 449.546 297.34 449.846 297.45 449.945C297.511 449.999 297.55 450.035 297.532 450.019C297.494 449.984 297.543 450.028 297.486 449.976C297.462 449.954 297.425 449.92 297.382 449.881L287.277 460.967L277.173 472.053C276.813 471.725 277.83 472.696 278.827 473.423C280.097 474.35 282.421 475.776 285.69 476.315L288.129 461.514ZM286.788 127.992L271.923 125.981C272.048 125.061 272.29 124.147 272.657 123.26L286.52 128.989L300.383 134.718C301.012 133.194 301.435 131.606 301.652 130.004L286.788 127.992Z" fill="black" fill-opacity="0.59" mask="url(#path-25-outside-1_217_737)"/>
</g>
<mask id="path-27-outside-2_217_737" maskUnits="userSpaceOnUse" x="190" y="97.0001" width="221" height="369" fill="black">
<rect fill="white" x="190" y="97.0001" width="221" height="369"/>
<path d="M255.66 105.796C272.294 99.4233 278.502 99.38 283.936 105.796C288.906 112.96 288.11 118.225 286.789 127.992C286.742 128.333 286.652 128.671 286.521 128.989L250.02 217.311C249.491 218.589 249.661 220.05 250.468 221.173L318.494 315.798C320.013 317.911 323.114 318.034 324.795 316.047L331.086 308.613C331.479 308.148 331.764 307.592 331.91 307.001C336.19 289.687 335.567 280.931 329.164 268.099C328.992 267.755 328.766 267.433 328.501 267.155C316.88 254.934 305.139 246.253 294.599 246.253H284.404C281.669 246.253 279.838 243.367 282.185 241.963C284.065 240.838 286.716 240.213 290.427 239.763H350.358C350.579 239.763 350.804 239.744 351.022 239.708C376.819 235.381 385.528 231.056 392.993 221.214C393.221 220.914 393.405 220.573 393.534 220.22C397.237 210.105 396.931 205.904 393.606 200.771C393.429 200.498 393.211 200.247 392.967 200.031C387.469 195.17 382.416 193.285 376.646 193.14C372.942 193.046 370.515 188.817 373.77 187.045C374.539 186.627 375.352 186.25 376.244 185.878C376.812 185.641 377.434 185.553 378.046 185.61C390.028 186.725 395.362 189.446 402.14 196.617C402.45 196.944 402.701 197.329 402.878 197.743C406.78 206.861 407.445 212.488 405.452 222.751C405.411 222.964 405.351 223.176 405.273 223.379C401.202 233.867 390.047 243.448 385.456 246.253C381.23 248.834 370.551 253.48 358.425 257.942C356.43 258.675 355.354 260.823 355.85 262.89C357.39 269.309 357.637 275.193 356.715 286.583C355.665 295.686 354.537 301.068 350.689 311.614C347.489 321.318 342.953 326.328 334.212 333.634C332.75 334.855 332.323 336.931 333.212 338.615L340.491 352.407C347.357 369.19 346.732 401.774 345.59 407.107C344.199 413.597 335.116 429.284 321.485 442.8C313.239 451.694 292.387 462.218 288.128 461.514C287.784 461.457 287.535 461.202 287.278 460.967C286.156 459.944 285.391 460.298 284.111 456.744C283.993 456.415 283.924 456.064 283.903 455.715C283.016 441.312 284.514 430.943 290.184 416.972C290.343 416.58 290.569 416.21 290.844 415.889C300.196 404.966 306.181 399.088 318.176 390.338C318.522 390.086 318.833 389.775 319.08 389.425C324.385 381.921 325.933 377.304 325.193 368.632C323.935 357.445 321.647 351.905 316.135 344.706C315.178 343.456 313.551 342.933 312.025 343.326C285.23 350.223 269.403 351.304 241.753 349.626C224.127 348.033 215.385 345.654 204.438 335.927C204.284 335.791 204.138 335.638 204.008 335.479C198.648 328.924 195.981 325.004 194.471 316.714C193.343 302.28 194.188 294.743 197.614 282.313C197.681 282.072 197.771 281.834 197.882 281.61L230.964 214.55C231.614 213.233 231.49 211.666 230.641 210.468L216.461 190.45C216.326 190.259 216.206 190.054 216.107 189.842C212.872 182.966 211.351 178.955 210.231 171.62C209.278 158.64 210.742 151.143 216.039 137.862C216.182 137.504 216.383 137.159 216.624 136.857C229.381 120.871 237.921 114.005 255.66 105.796ZM227.383 271.749C223.676 278.584 223.055 284.41 223.651 296.765C223.666 297.08 223.721 297.401 223.811 297.703C227.738 310.816 232.505 316.985 244.535 325.984C256.697 332.714 265.341 334.803 283.418 335.694C283.759 335.711 284.111 335.683 284.445 335.612C293.377 333.723 299.015 332.428 302.542 330.63C304.252 329.757 304.506 327.6 303.462 325.988L247.324 239.266C245.565 236.548 241.473 236.938 240.258 239.939L227.383 271.749ZM268.106 135.547C269.493 132.602 266.966 129.354 263.861 130.329C254.608 133.235 247.859 138.428 237.798 149.592C237.655 149.75 237.521 149.925 237.407 150.104C231.802 158.866 229.752 165.295 227.53 177.744C227.432 178.289 227.45 178.853 227.584 179.39C229.351 186.468 231.004 190.903 233.825 195.288C235.414 197.756 239.021 197.303 240.271 194.648L268.106 135.547Z"/>
</mask>
<path d="M255.66 105.796C272.294 99.4233 278.502 99.38 283.936 105.796C288.906 112.96 288.11 118.225 286.789 127.992C286.742 128.333 286.652 128.671 286.521 128.989L250.02 217.311C249.491 218.589 249.661 220.05 250.468 221.173L318.494 315.798C320.013 317.911 323.114 318.034 324.795 316.047L331.086 308.613C331.479 308.148 331.764 307.592 331.91 307.001C336.19 289.687 335.567 280.931 329.164 268.099C328.992 267.755 328.766 267.433 328.501 267.155C316.88 254.934 305.139 246.253 294.599 246.253H284.404C281.669 246.253 279.838 243.367 282.185 241.963C284.065 240.838 286.716 240.213 290.427 239.763H350.358C350.579 239.763 350.804 239.744 351.022 239.708C376.819 235.381 385.528 231.056 392.993 221.214C393.221 220.914 393.405 220.573 393.534 220.22C397.237 210.105 396.931 205.904 393.606 200.771C393.429 200.498 393.211 200.247 392.967 200.031C387.469 195.17 382.416 193.285 376.646 193.14C372.942 193.046 370.515 188.817 373.77 187.045C374.539 186.627 375.352 186.25 376.244 185.878C376.812 185.641 377.434 185.553 378.046 185.61C390.028 186.725 395.362 189.446 402.14 196.617C402.45 196.944 402.701 197.329 402.878 197.743C406.78 206.861 407.445 212.488 405.452 222.751C405.411 222.964 405.351 223.176 405.273 223.379C401.202 233.867 390.047 243.448 385.456 246.253C381.23 248.834 370.551 253.48 358.425 257.942C356.43 258.675 355.354 260.823 355.85 262.89C357.39 269.309 357.637 275.193 356.715 286.583C355.665 295.686 354.537 301.068 350.689 311.614C347.489 321.318 342.953 326.328 334.212 333.634C332.75 334.855 332.323 336.931 333.212 338.615L340.491 352.407C347.357 369.19 346.732 401.774 345.59 407.107C344.199 413.597 335.116 429.284 321.485 442.8C313.239 451.694 292.387 462.218 288.128 461.514C287.784 461.457 287.535 461.202 287.278 460.967C286.156 459.944 285.391 460.298 284.111 456.744C283.993 456.415 283.924 456.064 283.903 455.715C283.016 441.312 284.514 430.943 290.184 416.972C290.343 416.58 290.569 416.21 290.844 415.889C300.196 404.966 306.181 399.088 318.176 390.338C318.522 390.086 318.833 389.775 319.08 389.425C324.385 381.921 325.933 377.304 325.193 368.632C323.935 357.445 321.647 351.905 316.135 344.706C315.178 343.456 313.551 342.933 312.025 343.326C285.23 350.223 269.403 351.304 241.753 349.626C224.127 348.033 215.385 345.654 204.438 335.927C204.284 335.791 204.138 335.638 204.008 335.479C198.648 328.924 195.981 325.004 194.471 316.714C193.343 302.28 194.188 294.743 197.614 282.313C197.681 282.072 197.771 281.834 197.882 281.61L230.964 214.55C231.614 213.233 231.49 211.666 230.641 210.468L216.461 190.45C216.326 190.259 216.206 190.054 216.107 189.842C212.872 182.966 211.351 178.955 210.231 171.62C209.278 158.64 210.742 151.143 216.039 137.862C216.182 137.504 216.383 137.159 216.624 136.857C229.381 120.871 237.921 114.005 255.66 105.796ZM227.383 271.749C223.676 278.584 223.055 284.41 223.651 296.765C223.666 297.08 223.721 297.401 223.811 297.703C227.738 310.816 232.505 316.985 244.535 325.984C256.697 332.714 265.341 334.803 283.418 335.694C283.759 335.711 284.111 335.683 284.445 335.612C293.377 333.723 299.015 332.428 302.542 330.63C304.252 329.757 304.506 327.6 303.462 325.988L247.324 239.266C245.565 236.548 241.473 236.938 240.258 239.939L227.383 271.749ZM268.106 135.547C269.493 132.602 266.966 129.354 263.861 130.329C254.608 133.235 247.859 138.428 237.798 149.592C237.655 149.75 237.521 149.925 237.407 150.104C231.802 158.866 229.752 165.295 227.53 177.744C227.432 178.289 227.45 178.853 227.584 179.39C229.351 186.468 231.004 190.903 233.825 195.288C235.414 197.756 239.021 197.303 240.271 194.648L268.106 135.547Z" fill="white"/>
<path d="M255.66 105.796L254.229 102.06L254.103 102.109L253.98 102.166L255.66 105.796ZM283.936 105.796L287.223 103.516L287.113 103.357L286.989 103.21L283.936 105.796ZM290.427 239.763V235.763H290.185L289.945 235.792L290.427 239.763ZM385.456 246.253L387.541 249.666L387.541 249.666L385.456 246.253ZM356.715 286.583L360.688 287.041L360.696 286.973L360.702 286.905L356.715 286.583ZM350.689 311.614L346.932 310.243L346.91 310.302L346.891 310.361L350.689 311.614ZM340.491 352.407L344.193 350.892L344.12 350.712L344.029 350.54L340.491 352.407ZM345.59 407.107L349.501 407.945L349.501 407.945L345.59 407.107ZM321.485 442.8L318.669 439.96L318.609 440.019L318.552 440.081L321.485 442.8ZM325.193 368.632L329.179 368.292L329.174 368.238L329.168 368.185L325.193 368.632ZM241.753 349.626L241.393 353.609L241.452 353.615L241.51 353.618L241.753 349.626ZM194.471 316.714L190.483 317.025L190.499 317.229L190.535 317.43L194.471 316.714ZM210.231 171.62L206.242 171.913L206.254 172.069L206.277 172.223L210.231 171.62ZM227.383 271.749L230.899 273.656L231.006 273.458L231.09 273.25L227.383 271.749ZM244.535 325.984L242.139 329.187L242.358 329.351L242.598 329.484L244.535 325.984ZM233.825 195.288L237.189 193.123L233.825 195.288ZM227.53 177.744L223.592 177.041L227.53 177.744ZM227.584 179.39L223.703 180.358L227.584 179.39ZM237.798 149.592L234.827 146.914L237.798 149.592ZM237.407 150.104L240.776 152.259L237.407 150.104ZM247.324 239.266L250.682 237.092L247.324 239.266ZM240.258 239.939L236.551 238.438L240.258 239.939ZM302.542 330.63L304.359 334.193L302.542 330.63ZM303.462 325.988L306.82 323.814L303.462 325.988ZM283.418 335.694L283.615 331.699L283.418 335.694ZM284.445 335.612L285.272 339.526L284.445 335.612ZM223.651 296.765L227.646 296.572L223.651 296.765ZM216.039 137.862L212.324 136.38L216.039 137.862ZM216.624 136.857L219.751 139.352L216.624 136.857ZM216.461 190.45L219.725 188.138L216.461 190.45ZM216.107 189.842L212.487 191.545L216.107 189.842ZM204.438 335.927L201.781 338.917L204.438 335.927ZM204.008 335.479L207.104 332.947L204.008 335.479ZM316.135 344.706L319.311 342.275L316.135 344.706ZM312.025 343.326L311.028 339.452L312.025 343.326ZM334.212 333.634L331.646 330.565L334.212 333.634ZM333.212 338.615L336.749 336.748L333.212 338.615ZM358.425 257.942L357.044 254.188L358.425 257.942ZM355.85 262.89L351.961 263.823L355.85 262.89ZM405.452 222.751L401.525 221.988L405.452 222.751ZM405.273 223.379L409.002 224.826L405.273 223.379ZM402.14 196.617L405.047 193.869L402.14 196.617ZM402.878 197.743L399.201 199.317L402.878 197.743ZM230.641 210.468L227.377 212.78L230.641 210.468ZM393.606 200.771L390.249 202.946L393.606 200.771ZM392.967 200.031L395.617 197.035L392.967 200.031ZM197.614 282.313L193.758 281.25L197.614 282.313ZM197.882 281.61L201.469 283.379L197.882 281.61ZM392.993 221.214L389.806 218.797L392.993 221.214ZM393.534 220.22L397.291 221.595L393.534 220.22ZM351.022 239.708L350.36 235.763L351.022 239.708ZM282.185 241.963L284.238 245.396L282.185 241.963ZM329.164 268.099L325.585 269.885L329.164 268.099ZM328.501 267.155L331.4 264.398L328.501 267.155ZM318.176 390.338L320.533 393.57L318.176 390.338ZM319.08 389.425L322.346 391.734L319.08 389.425ZM331.086 308.613L334.139 311.196L331.086 308.613ZM331.91 307.001L328.027 306.041L331.91 307.001ZM290.184 416.972L286.477 415.468L290.184 416.972ZM290.844 415.889L293.883 418.49L290.844 415.889ZM318.494 315.798L315.246 318.133L318.494 315.798ZM324.795 316.047L321.742 313.463L324.795 316.047ZM378.046 185.61L378.417 181.627L378.046 185.61ZM284.111 456.744L287.874 455.389L284.111 456.744ZM283.903 455.715L279.91 455.961L283.903 455.715ZM376.646 193.14L376.546 197.138L376.646 193.14ZM373.77 187.045L375.682 190.559L373.77 187.045ZM288.128 461.514L288.78 457.567L288.128 461.514ZM287.278 460.967L289.973 458.011L287.278 460.967ZM286.789 127.992L282.825 127.456L286.789 127.992ZM286.521 128.989L282.824 127.461L286.521 128.989ZM255.66 105.796L257.091 109.531C265.42 106.34 270.508 105.005 274.003 105C275.639 104.998 276.816 105.293 277.784 105.775C278.773 106.266 279.769 107.065 280.884 108.381L283.936 105.796L286.989 103.21C285.386 101.319 283.569 99.7167 281.345 98.6112C279.101 97.4952 276.667 96.9968 273.993 97.0001C268.866 97.0066 262.534 98.8789 254.229 102.06L255.66 105.796ZM283.936 105.796L280.65 108.075C282.758 111.115 283.533 113.546 283.733 116.217C283.951 119.137 283.506 122.42 282.825 127.456L286.789 127.992L290.752 128.529C291.393 123.796 292.006 119.564 291.71 115.619C291.396 111.425 290.084 107.641 287.223 103.516L283.936 105.796ZM286.521 128.989L282.824 127.461L246.323 215.783L250.02 217.311L253.716 218.838L290.217 130.516L286.521 128.989ZM250.468 221.173L247.221 223.508L315.246 318.133L318.494 315.798L321.742 313.463L253.716 218.838L250.468 221.173ZM324.795 316.047L327.849 318.63L334.139 311.196L331.086 308.613L328.032 306.029L321.742 313.463L324.795 316.047ZM331.91 307.001L335.793 307.961C337.972 299.145 338.997 292.156 338.533 285.587C338.064 278.946 336.095 273.03 332.743 266.313L329.164 268.099L325.585 269.885C328.636 276 330.18 280.877 330.553 286.151C330.931 291.496 330.128 297.542 328.027 306.041L331.91 307.001ZM328.501 267.155L331.4 264.398C325.476 258.168 319.391 252.699 313.32 248.764C307.281 244.85 300.945 242.253 294.599 242.253V246.253V250.253C298.792 250.253 303.597 251.996 308.969 255.478C314.31 258.939 319.906 263.921 325.603 269.911L328.501 267.155ZM294.599 246.253V242.253H284.404V246.253V250.253H294.599V246.253ZM282.185 241.963L284.238 245.396C285.346 244.733 287.269 244.175 290.908 243.734L290.427 239.763L289.945 235.792C286.164 236.251 282.784 236.944 280.132 238.53L282.185 241.963ZM290.427 239.763V243.763H350.358V239.763V235.763H290.427V239.763ZM351.022 239.708L351.684 243.653C364.648 241.478 373.697 239.25 380.524 236.176C387.534 233.02 392.089 229.025 396.18 223.631L392.993 221.214L389.806 218.797C386.432 223.245 382.9 226.333 377.24 228.882C371.396 231.513 363.193 233.61 350.36 235.763L351.022 239.708ZM393.534 220.22L397.291 221.595C399.184 216.423 400.242 212.289 400.206 208.588C400.167 204.671 398.912 201.605 396.964 198.597L393.606 200.771L390.249 202.946C391.625 205.071 392.186 206.672 392.206 208.667C392.228 210.878 391.588 213.901 389.778 218.844L393.534 220.22ZM392.967 200.031L395.617 197.035C389.479 191.608 383.542 189.312 376.747 189.141L376.646 193.14L376.546 197.138C381.291 197.258 385.459 198.733 390.318 203.028L392.967 200.031ZM373.77 187.045L375.682 190.559C376.297 190.224 376.979 189.906 377.784 189.57L376.244 185.878L374.704 182.187C373.726 182.595 372.781 183.03 371.858 183.532L373.77 187.045ZM378.046 185.61L377.676 189.593C383.448 190.13 387.264 191.026 390.353 192.468C393.407 193.892 396.035 195.981 399.233 199.365L402.14 196.617L405.047 193.869C401.467 190.082 398.039 187.225 393.736 185.218C389.468 183.227 384.626 182.205 378.417 181.627L378.046 185.61ZM402.878 197.743L399.201 199.317C401.068 203.681 402.051 206.957 402.398 210.238C402.745 213.525 402.481 217.066 401.525 221.988L405.452 222.751L409.379 223.513C410.416 218.173 410.815 213.77 410.353 209.397C409.89 205.02 408.59 200.924 406.556 196.17L402.878 197.743ZM405.273 223.379L401.544 221.932C399.775 226.489 396.359 231.065 392.666 234.936C388.979 238.799 385.308 241.655 383.371 242.839L385.456 246.253L387.541 249.666C390.195 248.045 394.397 244.709 398.453 240.459C402.503 236.215 406.7 230.758 409.002 224.826L405.273 223.379ZM385.456 246.253L383.371 242.839C379.518 245.193 369.179 249.723 357.044 254.188L358.425 257.942L359.806 261.696C371.924 257.238 382.942 252.476 387.541 249.666L385.456 246.253ZM355.85 262.89L351.961 263.823C353.358 269.648 353.635 275.05 352.728 286.26L356.715 286.583L360.702 286.905C361.638 275.336 361.423 268.97 359.74 261.957L355.85 262.89ZM356.715 286.583L352.741 286.125C351.727 294.923 350.669 299.999 346.932 310.243L350.689 311.614L354.447 312.985C358.405 302.138 359.604 296.449 360.688 287.041L356.715 286.583ZM350.689 311.614L346.891 310.361C344.023 319.056 340.119 323.483 331.646 330.565L334.212 333.634L336.777 336.703C345.787 329.173 350.955 323.58 354.488 312.867L350.689 311.614ZM333.212 338.615L329.674 340.482L336.954 354.274L340.491 352.407L344.029 350.54L336.749 336.748L333.212 338.615ZM340.491 352.407L336.789 353.921C339.951 361.65 341.493 373.418 342.049 384.255C342.323 389.604 342.351 394.596 342.242 398.56C342.13 402.648 341.877 405.341 341.678 406.269L345.59 407.107L349.501 407.945C349.873 406.207 350.128 402.827 350.239 398.78C350.354 394.61 350.323 389.408 350.038 383.846C349.475 372.862 347.897 359.946 344.193 350.892L340.491 352.407ZM345.59 407.107L341.679 406.269C341.142 408.775 338.858 413.816 334.767 420.148C330.761 426.351 325.261 433.422 318.669 439.96L321.485 442.8L324.302 445.641C331.339 438.662 337.196 431.132 341.487 424.489C345.694 417.976 348.647 411.929 349.501 407.945L345.59 407.107ZM321.485 442.8L318.552 440.081C314.879 444.042 308.065 448.648 301.412 452.236C298.133 454.004 295.029 455.452 292.547 456.402C291.302 456.879 290.281 457.203 289.515 457.386C288.616 457.602 288.481 457.518 288.78 457.567L288.128 461.514L287.476 465.46C288.839 465.686 290.288 465.427 291.376 465.167C292.598 464.875 293.97 464.423 295.407 463.873C298.29 462.77 301.713 461.163 305.21 459.277C312.11 455.556 319.845 450.452 324.418 445.52L321.485 442.8ZM287.278 460.967L289.973 458.011C289.437 457.523 288.937 457.199 288.707 457.046C288.462 456.883 288.507 456.903 288.559 456.954C288.7 457.092 288.439 456.956 287.874 455.389L284.111 456.744L280.348 458.099C281.063 460.087 281.824 461.55 282.948 462.656C283.491 463.19 284.018 463.535 284.272 463.704C284.541 463.884 284.557 463.899 284.583 463.923L287.278 460.967ZM283.903 455.715L287.895 455.469C287.043 441.636 288.456 431.868 293.89 418.476L290.184 416.972L286.477 415.468C280.573 430.018 278.988 440.987 279.91 455.961L283.903 455.715ZM290.844 415.889L293.883 418.49C303.068 407.762 308.83 402.107 320.533 393.57L318.176 390.338L315.818 387.107C303.532 396.069 297.324 402.17 287.806 413.287L290.844 415.889ZM319.08 389.425L322.346 391.734C325.098 387.842 327.093 384.401 328.233 380.621C329.385 376.8 329.574 372.932 329.179 368.292L325.193 368.632L321.208 368.971C321.552 373.004 321.337 375.78 320.574 378.312C319.798 380.885 318.367 383.505 315.814 387.116L319.08 389.425ZM325.193 368.632L329.168 368.185C328.519 362.408 327.579 357.857 325.992 353.736C324.395 349.588 322.216 346.068 319.311 342.275L316.135 344.706L312.959 347.138C315.567 350.543 317.287 353.393 318.527 356.611C319.776 359.856 320.61 363.668 321.218 369.078L325.193 368.632ZM312.025 343.326L311.028 339.452C284.688 346.232 269.285 347.29 241.995 345.633L241.753 349.626L241.51 353.618C269.521 355.319 285.771 354.215 313.023 347.2L312.025 343.326ZM241.753 349.626L242.113 345.642C233.364 344.851 227.18 343.89 221.909 342.05C216.738 340.245 212.258 337.525 207.095 332.937L204.438 335.927L201.781 338.917C207.564 344.056 212.929 347.389 219.272 349.603C225.516 351.783 232.516 352.808 241.393 353.609L241.753 349.626ZM204.008 335.479L207.104 332.947C204.436 329.683 202.646 327.32 201.318 324.852C200.027 322.451 199.101 319.811 198.406 315.997L194.471 316.714L190.535 317.43C191.351 321.906 192.513 325.371 194.273 328.642C195.996 331.845 198.22 334.719 200.911 338.011L204.008 335.479ZM194.471 316.714L198.458 316.402C197.367 302.427 198.169 295.355 201.471 283.376L197.614 282.313L193.758 281.25C190.208 294.13 189.319 302.133 190.483 317.025L194.471 316.714ZM197.882 281.61L201.469 283.379L234.551 216.32L230.964 214.55L227.377 212.78L194.295 279.84L197.882 281.61ZM230.641 210.468L233.905 208.156L219.725 188.138L216.461 190.45L213.197 192.762L227.377 212.78L230.641 210.468ZM216.107 189.842L219.726 188.14C216.592 181.476 215.228 177.846 214.186 171.016L210.231 171.62L206.277 172.223C207.474 180.063 209.153 184.456 212.487 191.545L216.107 189.842ZM210.231 171.62L214.221 171.327C213.76 165.056 213.895 160.286 214.73 155.548C215.571 150.781 217.149 145.877 219.755 139.344L216.039 137.862L212.324 136.38C209.632 143.128 207.829 148.613 206.852 154.159C205.869 159.736 205.749 165.204 206.242 171.913L210.231 171.62ZM216.624 136.857L219.751 139.352C226.037 131.474 231.149 126.017 236.767 121.538C242.377 117.066 248.637 113.453 257.34 109.426L255.66 105.796L253.98 102.166C244.944 106.347 238.066 110.272 231.781 115.282C225.505 120.285 219.968 126.253 213.498 134.362L216.624 136.857ZM227.383 271.749L223.867 269.842C219.622 277.667 219.05 284.408 219.656 296.958L223.651 296.765L227.646 296.572C227.059 284.413 227.729 279.5 230.899 273.656L227.383 271.749ZM223.811 297.703L219.979 298.851C222.024 305.68 224.368 310.967 227.919 315.765C231.444 320.529 235.999 324.593 242.139 329.187L244.535 325.984L246.931 322.781C241.042 318.375 237.198 314.856 234.35 311.007C231.528 307.193 229.525 302.839 227.643 296.556L223.811 297.703ZM244.535 325.984L242.598 329.484C255.446 336.594 264.734 338.778 283.221 339.689L283.418 335.694L283.615 331.699C265.949 330.828 257.949 328.835 246.472 322.484L244.535 325.984ZM284.445 335.612L285.272 339.526C293.988 337.682 300.25 336.289 304.359 334.193L302.542 330.63L300.724 327.067C297.781 328.568 292.766 329.763 283.617 331.699L284.445 335.612ZM303.462 325.988L306.82 323.814L250.682 237.092L247.324 239.266L243.966 241.44L300.104 328.161L303.462 325.988ZM240.258 239.939L236.551 238.438L223.675 270.248L227.383 271.749L231.09 273.25L243.966 241.44L240.258 239.939ZM263.861 130.329L262.662 126.513C252.407 129.734 245.076 135.541 234.827 146.914L237.798 149.592L240.769 152.269C250.643 141.314 256.809 136.737 265.06 134.145L263.861 130.329ZM237.407 150.104L234.037 147.949C228.054 157.303 225.869 164.286 223.592 177.041L227.53 177.744L231.467 178.448C233.635 166.304 235.551 160.429 240.776 152.259L237.407 150.104ZM227.584 179.39L223.703 180.358C225.521 187.64 227.306 192.548 230.462 197.452L233.825 195.288L237.189 193.123C234.702 189.259 233.181 185.297 231.465 178.421L227.584 179.39ZM240.271 194.648L243.89 196.353L271.725 137.251L268.106 135.547L264.488 133.842L236.653 192.944L240.271 194.648ZM233.825 195.288L230.462 197.452C234 202.951 241.502 201.423 243.89 196.353L240.271 194.648L236.653 192.944C236.642 192.966 236.644 192.954 236.666 192.939C236.68 192.929 236.703 192.917 236.743 192.913C236.784 192.908 236.869 192.91 236.977 192.959C237.1 193.014 237.171 193.095 237.189 193.123L233.825 195.288ZM227.53 177.744L223.592 177.041C223.397 178.134 223.431 179.268 223.703 180.358L227.584 179.39L231.465 178.421C231.468 178.432 231.468 178.437 231.468 178.439C231.468 178.441 231.468 178.443 231.467 178.448L227.53 177.744ZM237.798 149.592L234.827 146.914C234.541 147.23 234.273 147.58 234.037 147.949L237.407 150.104L240.776 152.259C240.774 152.263 240.772 152.266 240.771 152.267C240.771 152.268 240.77 152.268 240.77 152.268C240.771 152.268 240.771 152.268 240.771 152.268C240.771 152.267 240.771 152.268 240.769 152.269L237.798 149.592ZM263.861 130.329L265.06 134.145C265.068 134.143 265.038 134.153 264.978 134.152C264.919 134.152 264.852 134.142 264.785 134.12C264.651 134.076 264.577 134.007 264.545 133.967C264.514 133.928 264.501 133.893 264.497 133.862C264.492 133.817 264.506 133.803 264.488 133.842L268.106 135.547L271.725 137.251C273.097 134.338 272.55 131.167 270.792 128.969C268.998 126.727 265.914 125.491 262.662 126.513L263.861 130.329ZM247.324 239.266L250.682 237.092C247.163 231.656 238.98 232.436 236.551 238.438L240.258 239.939L243.966 241.44C243.972 241.426 243.976 241.42 243.977 241.417C243.978 241.415 243.978 241.416 243.975 241.419C243.973 241.422 243.97 241.426 243.966 241.43C243.962 241.433 243.958 241.437 243.954 241.439C243.947 241.444 243.944 241.445 243.947 241.444C243.95 241.443 243.957 241.441 243.966 241.44C243.975 241.439 243.982 241.439 243.986 241.44C243.989 241.44 243.986 241.44 243.978 241.437C243.974 241.435 243.97 241.433 243.965 241.43C243.96 241.427 243.957 241.424 243.954 241.421C243.951 241.419 243.95 241.418 243.952 241.42C243.953 241.422 243.958 241.428 243.966 241.44L247.324 239.266ZM302.542 330.63L304.359 334.193C308.803 331.926 308.741 326.781 306.82 323.814L303.462 325.988L300.104 328.161C300.104 328.161 300.102 328.159 300.1 328.153C300.098 328.148 300.094 328.137 300.09 328.121C300.084 328.091 300.073 328.019 300.093 327.906C300.113 327.789 300.167 327.624 300.29 327.451C300.418 327.271 300.579 327.141 300.724 327.067L302.542 330.63ZM283.418 335.694L283.221 339.689C283.907 339.723 284.603 339.667 285.272 339.526L284.445 335.612L283.617 331.699C283.619 331.698 283.62 331.698 283.619 331.698C283.619 331.698 283.617 331.699 283.615 331.699C283.613 331.699 283.612 331.699 283.611 331.699C283.61 331.699 283.612 331.699 283.615 331.699L283.418 335.694ZM223.651 296.765L219.656 296.958C219.686 297.59 219.794 298.232 219.979 298.851L223.811 297.703L227.643 296.556C227.645 296.561 227.645 296.565 227.646 296.566C227.646 296.568 227.646 296.568 227.646 296.568C227.646 296.568 227.646 296.568 227.646 296.568C227.646 296.568 227.646 296.569 227.646 296.572L223.651 296.765ZM216.039 137.862L219.755 139.344C219.753 139.349 219.752 139.351 219.752 139.351C219.752 139.351 219.752 139.351 219.753 139.35C219.753 139.349 219.754 139.348 219.754 139.348C219.754 139.347 219.753 139.349 219.751 139.352L216.624 136.857L213.498 134.362C213.013 134.969 212.613 135.655 212.324 136.38L216.039 137.862ZM216.461 190.45L219.725 188.138C219.726 188.139 219.726 188.139 219.726 188.139C219.725 188.138 219.725 188.138 219.726 188.14L216.107 189.842L212.487 191.545C212.687 191.97 212.925 192.379 213.197 192.762L216.461 190.45ZM204.438 335.927L207.095 332.937C207.098 332.94 207.1 332.942 207.101 332.943C207.102 332.943 207.102 332.944 207.102 332.944C207.102 332.944 207.102 332.944 207.102 332.944C207.103 332.944 207.103 332.945 207.104 332.947L204.008 335.479L200.911 338.011C201.173 338.33 201.465 338.637 201.781 338.917L204.438 335.927ZM316.135 344.706L319.311 342.275C317.33 339.687 314.03 338.68 311.028 339.452L312.025 343.326L313.023 347.2C313.037 347.196 313.042 347.199 313.034 347.197C313.029 347.195 313.018 347.19 313.003 347.18C312.987 347.169 312.972 347.154 312.959 347.138L316.135 344.706ZM334.212 333.634L331.646 330.565C328.765 332.973 327.888 337.098 329.674 340.482L333.212 338.615L336.749 336.748C336.748 336.746 336.749 336.746 336.749 336.748C336.75 336.749 336.75 336.751 336.75 336.752C336.75 336.753 336.75 336.751 336.751 336.744C336.752 336.737 336.755 336.73 336.759 336.723C336.762 336.718 336.767 336.711 336.777 336.703L334.212 333.634ZM358.425 257.942L357.044 254.188C353.038 255.661 351.019 259.898 351.961 263.823L355.85 262.89L359.74 261.957C359.72 261.873 359.734 261.798 359.761 261.746C359.773 261.721 359.785 261.709 359.79 261.705C359.793 261.702 359.796 261.699 359.806 261.696L358.425 257.942ZM405.452 222.751L401.525 221.988C401.525 221.988 401.526 221.984 401.529 221.976C401.531 221.967 401.536 221.953 401.544 221.932L405.273 223.379L409.002 224.826C409.174 224.382 409.296 223.939 409.379 223.513L405.452 222.751ZM402.14 196.617L399.233 199.365C399.223 199.354 399.217 199.346 399.213 199.34C399.209 199.334 399.205 199.327 399.201 199.317L402.878 197.743L406.556 196.17C406.195 195.325 405.683 194.542 405.047 193.869L402.14 196.617ZM230.964 214.55L234.551 216.32C235.851 213.686 235.602 210.552 233.905 208.156L230.641 210.468L227.377 212.78L227.377 212.78L230.964 214.55ZM393.606 200.771L396.964 198.597C396.582 198.007 396.122 197.482 395.617 197.035L392.967 200.031L390.318 203.028C390.307 203.019 390.297 203.009 390.287 202.997C390.277 202.986 390.264 202.969 390.249 202.946L393.606 200.771ZM197.614 282.313L201.471 283.376C201.47 283.378 201.47 283.379 201.47 283.378C201.47 283.377 201.47 283.377 201.469 283.379L197.882 281.61L194.295 279.84C194.072 280.291 193.892 280.765 193.758 281.25L197.614 282.313ZM392.993 221.214L396.18 223.631C396.656 223.004 397.029 222.31 397.291 221.595L393.534 220.22L389.778 218.844C389.781 218.837 389.783 218.832 389.786 218.828C389.788 218.823 389.794 218.813 389.806 218.797L392.993 221.214ZM350.358 239.763V243.763C350.804 243.763 351.252 243.725 351.684 243.653L351.022 239.708L350.36 235.763C350.361 235.763 350.359 235.763 350.356 235.763C350.353 235.764 350.353 235.763 350.358 235.763V239.763ZM284.404 246.253V242.253C284.427 242.253 284.473 242.259 284.536 242.294C284.582 242.32 284.729 242.414 284.872 242.668C285.02 242.93 285.214 243.48 285.04 244.185C284.855 244.934 284.393 245.303 284.238 245.396L282.185 241.963L280.132 238.53C278.803 239.325 277.69 240.581 277.274 242.266C276.868 243.907 277.251 245.442 277.906 246.601C279.169 248.838 281.693 250.253 284.404 250.253V246.253ZM329.164 268.099L332.743 266.313C332.393 265.611 331.937 264.963 331.4 264.398L328.501 267.155L325.603 269.911C325.597 269.906 325.595 269.902 325.594 269.9C325.592 269.899 325.589 269.894 325.585 269.885L329.164 268.099ZM318.176 390.338L320.533 393.57C321.213 393.074 321.836 392.456 322.346 391.734L319.08 389.425L315.814 387.116C315.819 387.109 315.822 387.105 315.824 387.103C315.826 387.1 315.827 387.1 315.826 387.1C315.826 387.1 315.825 387.102 315.823 387.103C315.822 387.104 315.82 387.106 315.818 387.107L318.176 390.338ZM331.086 308.613L334.139 311.196C334.928 310.263 335.498 309.153 335.793 307.961L331.91 307.001L328.027 306.041C328.028 306.037 328.028 306.034 328.029 306.033C328.029 306.032 328.029 306.032 328.029 306.032C328.029 306.033 328.029 306.033 328.029 306.032C328.029 306.032 328.03 306.031 328.032 306.029L331.086 308.613ZM290.184 416.972L293.89 418.476C293.888 418.481 293.887 418.485 293.886 418.486C293.885 418.488 293.885 418.489 293.885 418.488C293.885 418.488 293.885 418.488 293.885 418.488C293.885 418.488 293.885 418.488 293.885 418.488C293.885 418.488 293.885 418.488 293.884 418.489C293.884 418.489 293.884 418.489 293.883 418.49L290.844 415.889L287.806 413.287C287.255 413.93 286.801 414.67 286.477 415.468L290.184 416.972ZM318.494 315.798L315.246 318.133C318.285 322.359 324.487 322.604 327.849 318.63L324.795 316.047L321.742 313.463L321.742 313.463L318.494 315.798ZM376.244 185.878L377.784 189.57C377.753 189.583 377.728 189.589 377.711 189.591C377.695 189.593 377.684 189.593 377.676 189.593L378.046 185.61L378.417 181.627C377.181 181.512 375.9 181.688 374.704 182.187L376.244 185.878ZM284.111 456.744L287.874 455.389C287.886 455.42 287.891 455.441 287.893 455.451C287.895 455.462 287.895 455.468 287.895 455.469L283.903 455.715L279.91 455.961C279.953 456.656 280.09 457.384 280.348 458.099L284.111 456.744ZM250.02 217.311L246.323 215.783C245.266 218.34 245.606 221.262 247.221 223.508L250.468 221.173L253.716 218.838L253.716 218.838L250.02 217.311ZM376.646 193.14L376.747 189.141C376.576 189.136 376.424 189.085 376.301 189.008C376.162 188.921 376.133 188.848 376.156 188.894C376.18 188.94 376.324 189.262 376.191 189.762C376.125 190.009 376.008 190.219 375.879 190.374C375.755 190.523 375.662 190.57 375.682 190.559L373.77 187.045L371.858 183.532C370.231 184.417 368.957 185.839 368.46 187.702C367.982 189.496 368.354 191.214 369.04 192.549C370.374 195.146 373.235 197.055 376.546 197.138L376.646 193.14ZM288.128 461.514L288.78 457.567C289.433 457.675 289.865 457.957 290.029 458.077C290.108 458.135 290.151 458.174 290.133 458.158C290.125 458.151 290.112 458.139 290.083 458.113C290.062 458.093 290.014 458.049 289.973 458.011L287.278 460.967L284.583 463.923C284.606 463.944 284.622 463.959 284.665 463.999C284.701 464.032 284.752 464.079 284.809 464.13C284.921 464.229 285.095 464.38 285.311 464.538C285.75 464.858 286.478 465.296 287.476 465.46L288.128 461.514ZM286.789 127.992L282.825 127.456C282.824 127.457 282.824 127.459 282.823 127.461C282.823 127.464 282.823 127.464 282.824 127.461L286.521 128.989L290.217 130.516C290.482 129.877 290.661 129.206 290.752 128.529L286.789 127.992Z" fill="white" mask="url(#path-27-outside-2_217_737)"/>
</g>
<defs>
<clipPath id="clip0_217_737">
<rect width="574" height="574" fill="white"/>
</clipPath>
</defs>
</svg>
