<svg width="574" height="574" viewBox="0 0 574 574" fill="none" xmlns="http://www.w3.org/2000/svg">
<path fill-rule="evenodd" clip-rule="evenodd" d="M570.752 272.603C567.988 224.752 449.382 192.684 369.534 197.296C319.532 200.185 296.586 216.772 287.096 240.519C277.853 216.237 254.97 199.223 204.268 196.294C124.419 191.681 5.8135 223.75 3.04934 271.601C0.285174 319.452 114.409 364.965 194.258 369.577C253.683 373.01 277.377 352.822 286.749 322.545C295.908 353.377 319.465 374.05 379.544 370.579C459.392 365.967 573.516 320.454 570.752 272.603Z" fill="#008121"/>
<path fill-rule="evenodd" clip-rule="evenodd" d="M529.818 427.94C553.784 386.431 472.268 294.502 403.002 254.511C351.864 224.986 321.699 232.026 299.769 254.437C310.549 222.563 303.455 191.331 249.586 160.23C180.32 120.239 59.949 95.6093 35.9837 137.118C12.0183 178.628 93.5337 270.557 162.8 310.548C213.938 340.072 244.103 333.033 266.033 310.622C255.253 342.495 262.347 373.728 316.216 404.829C385.482 444.82 505.853 469.449 529.818 427.94Z" fill="#004CFF"/>
<path fill-rule="evenodd" clip-rule="evenodd" d="M43.9832 426.938C20.0179 385.429 101.533 293.499 170.799 253.509C221.204 224.408 251.232 230.829 273.083 252.479C263.737 221.631 272.016 191.37 324.216 161.232C393.482 121.242 513.853 96.6118 537.818 138.121C561.783 179.63 480.268 271.56 411.002 311.55C360.597 340.651 330.569 334.23 308.718 312.579C318.064 343.428 309.785 373.689 257.585 403.827C188.319 443.817 67.9485 468.447 43.9832 426.938Z" fill="#FFEE00"/>
<path fill-rule="evenodd" clip-rule="evenodd" d="M434.568 546.186C476.077 522.221 451.447 401.85 411.457 332.584C371.466 263.318 331.258 271.386 289.749 295.351C248.239 319.317 221.148 350.104 261.139 419.37C301.129 488.636 393.059 570.151 434.568 546.186ZM123.233 48.3523C164.742 24.3869 256.672 105.902 296.662 175.168C336.653 244.434 309.562 275.222 268.053 299.187C226.543 323.152 186.335 331.221 146.344 261.955C106.354 192.688 81.7239 72.3176 123.233 48.3523Z" fill="#760188"/>
<path fill-rule="evenodd" clip-rule="evenodd" d="M140.749 546.186C99.2397 522.221 123.869 401.85 163.86 332.584C203.851 263.318 244.059 271.386 285.568 295.351C327.077 319.317 354.169 350.104 314.178 419.37C274.187 488.636 182.258 570.151 140.749 546.186ZM450.569 49.3548C409.06 25.3895 317.13 106.905 277.139 176.171C237.149 245.437 264.24 276.224 305.749 300.189C347.258 324.155 387.467 332.223 427.457 262.957C467.448 193.691 492.078 73.3201 450.569 49.3548Z" fill="#FF8D00"/>
<path fill-rule="evenodd" clip-rule="evenodd" d="M286.377 570.599C334.307 570.599 373.163 454.04 373.163 374.058C373.163 320.315 355.619 296.762 329.566 287.092C352.908 277.214 369.008 254.061 371.338 204.428C375.09 124.534 341.744 6.28074 293.866 4.03256C245.988 1.78439 201.709 116.393 197.957 196.286C195.264 253.631 214.183 277.505 242.782 287.244C216.953 297.007 199.591 320.594 199.591 374.058C199.591 454.04 238.446 570.599 286.377 570.599Z" fill="#E50000"/>
<path d="M269.933 174.736C274.551 158.549 297.364 158.198 302.478 174.235L307.835 191.036C311.519 202.591 325.77 206.682 335.022 198.841L351.107 185.21C364.506 173.855 384.227 187.798 377.99 204.216L377.249 206.166C372.372 219.005 383.944 232.028 397.267 228.695L411.556 225.12C427.96 221.015 438.086 242.464 424.492 252.522V252.522C413.501 260.653 417.922 278.036 431.418 280.22V280.22C448.788 283.031 449.173 308.06 431.898 311.404V311.404C418.475 314.003 414.592 331.514 425.828 339.303V339.303C439.725 348.937 430.264 370.688 413.742 367.09L399.349 363.957C385.93 361.035 374.764 374.408 380.034 387.091L380.835 389.017C387.574 405.236 368.291 419.779 354.549 408.842L338.053 395.712C328.564 388.16 314.445 392.688 311.118 404.35L306.281 421.308C301.663 437.495 278.85 437.846 273.736 421.809L268.379 405.008C264.695 393.453 250.444 389.362 241.192 397.203L225.107 410.834C211.708 422.189 191.987 408.246 198.224 391.828L198.965 389.878C203.842 377.039 192.27 364.016 178.947 367.35L164.658 370.925C148.254 375.029 138.128 353.58 151.722 343.523V343.523C162.713 335.391 158.292 318.008 144.796 315.824V315.824C127.426 313.013 127.041 287.984 144.316 284.64V284.64C157.739 282.041 161.622 264.53 150.386 256.741V256.741C136.489 247.107 145.95 225.356 162.472 228.954L176.865 232.087C190.284 235.009 201.45 221.636 196.18 208.953L195.379 207.027C188.641 190.808 207.923 176.266 221.665 187.203L238.161 200.332C247.651 207.884 261.769 203.356 265.096 191.694L269.933 174.736Z" fill="white"/>
<path d="M274.843 245.592C277.94 234.734 293.243 234.498 296.673 245.256V245.256C299.144 253.006 308.703 255.75 314.909 250.491L320.884 245.428C328.434 239.03 339.546 246.886 336.032 256.138V256.138C333.284 263.372 339.804 270.711 347.312 268.832L354.827 266.952C363.879 264.687 369.466 276.523 361.965 282.072V282.072C355.9 286.559 358.34 296.151 365.787 297.357V297.357C375.371 298.908 375.584 312.718 366.052 314.564V314.564C358.645 315.997 356.502 325.66 362.702 329.958V329.958C370.37 335.274 365.15 347.276 356.033 345.291L348.463 343.643C340.902 341.997 334.61 349.532 337.579 356.679V356.679C341.377 365.818 330.511 374.012 322.768 367.849L316.641 362.973C310.276 357.907 300.805 360.944 298.574 368.767V368.767C295.477 379.625 280.174 379.86 276.744 369.103V369.103C274.272 361.353 264.713 358.608 258.507 363.868L252.533 368.93C244.983 375.329 233.871 367.472 237.385 358.221V358.221C240.133 350.986 233.612 343.648 226.105 345.526L218.589 347.407C209.538 349.671 203.95 337.836 211.451 332.286V332.286C217.516 327.799 215.077 318.207 207.63 317.002V317.002C198.045 315.451 197.832 301.64 207.365 299.795V299.795C214.771 298.361 216.914 288.699 210.714 284.401V284.401C203.046 279.085 208.266 267.083 217.383 269.068L224.953 270.716C232.515 272.362 238.807 264.827 235.837 257.68V257.68C232.04 248.541 242.905 240.347 250.648 246.509L256.776 251.386C263.141 256.452 272.611 253.415 274.843 245.592V245.592Z" fill="#F2EEB7"/>
<path fill-rule="evenodd" clip-rule="evenodd" d="M333.693 250.576C336.59 249.923 339.11 247.866 340.224 244.875C341.978 240.168 339.584 234.93 334.876 233.176C330.168 231.422 324.93 233.816 323.176 238.524C321.549 242.892 323.493 247.717 327.543 249.791L323.409 285.022C323.21 286.723 324.427 288.263 326.127 288.463C327.828 288.662 329.368 287.445 329.567 285.745L333.693 250.576Z" fill="#004CFF"/>
<path fill-rule="evenodd" clip-rule="evenodd" d="M237.935 307.742C240.557 306.127 242.295 303.22 242.267 299.916C242.226 294.892 238.12 290.854 233.096 290.895C228.072 290.937 224.034 295.043 224.075 300.066C224.113 304.571 227.418 308.284 231.723 308.973L241.162 346.231C241.59 347.924 243.31 348.949 245.003 348.52C246.696 348.091 247.721 346.371 247.292 344.678L237.935 307.742Z" fill="#FF8D00"/>
<path fill-rule="evenodd" clip-rule="evenodd" d="M342.106 302.596C345.247 302.223 348.104 300.22 349.422 297.098C351.376 292.47 349.208 287.134 344.579 285.18C339.951 283.227 334.615 285.395 332.661 290.023C330.876 294.251 332.532 299.07 336.36 301.361L330.23 339.439C329.973 341.039 331.061 342.545 332.661 342.802C334.262 343.06 335.768 341.972 336.025 340.371L342.106 302.596Z" fill="#760188"/>
<path fill-rule="evenodd" clip-rule="evenodd" d="M304.688 240.126C307.433 239.014 309.582 236.584 310.201 233.461C311.178 228.533 307.976 223.747 303.048 222.769C298.12 221.792 293.333 224.995 292.356 229.923C291.43 234.593 294.257 239.136 298.75 240.43L300.616 282.74C300.688 284.38 302.077 285.651 303.717 285.579C305.357 285.506 306.628 284.118 306.556 282.478L304.688 240.126Z" fill="#008121"/>
<path fill-rule="evenodd" clip-rule="evenodd" d="M273.511 253.949C276.059 252.768 278.027 250.427 278.615 247.461C279.592 242.533 276.389 237.746 271.461 236.769C266.534 235.792 261.747 238.995 260.769 243.923C259.815 248.737 262.85 253.417 267.585 254.541L269.049 287.724C269.122 289.365 270.51 290.636 272.15 290.563C273.791 290.491 275.062 289.103 274.989 287.462L273.511 253.949Z" fill="#FF8D00"/>
<path fill-rule="evenodd" clip-rule="evenodd" d="M307.615 315.9C310.112 314.703 312.034 312.386 312.614 309.461C313.592 304.533 310.389 299.746 305.461 298.769C300.533 297.792 295.746 300.995 294.769 305.923C293.83 310.657 296.75 315.262 301.351 316.482L302.933 352.359C303.01 354.092 304.477 355.435 306.211 355.359C307.944 355.282 309.287 353.815 309.211 352.082L307.615 315.9Z" fill="#004CFF"/>
<path fill-rule="evenodd" clip-rule="evenodd" d="M274.118 312.33C276.784 311.188 278.859 308.793 279.466 305.734C280.443 300.806 277.24 296.019 272.312 295.042C267.384 294.065 262.597 297.268 261.62 302.195C260.706 306.806 263.45 311.292 267.843 312.652L269.704 354.851C269.781 356.584 271.248 357.928 272.981 357.851C274.715 357.775 276.058 356.308 275.982 354.574L274.118 312.33Z" fill="#008121"/>
<path fill-rule="evenodd" clip-rule="evenodd" d="M243.667 256.485C246.085 254.953 247.743 252.307 247.89 249.23C248.13 244.212 244.257 239.95 239.239 239.71C234.221 239.47 229.958 243.344 229.718 248.362C229.49 253.147 233.002 257.246 237.68 257.823L245.301 297.006C245.624 298.668 247.234 299.754 248.896 299.43C250.558 299.107 251.643 297.498 251.32 295.836L243.667 256.485Z" fill="#E50000"/>
</svg>
