<svg width="574" height="574" viewBox="0 0 574 574" fill="none" xmlns="http://www.w3.org/2000/svg">
<g clip-path="url(#clip0_1_2)">
<path d="M197.913 198.325C201.664 118.431 245.944 3.82271 293.822 6.07087C341.7 8.31903 375.046 126.572 371.294 206.466C367.543 286.359 328.115 297.639 280.237 295.391C232.359 293.143 194.161 278.218 197.913 198.325Z" fill="#FFAFC8"/>
<path d="M369.49 199.335C449.338 194.722 567.944 226.791 570.708 274.642C573.472 322.493 459.348 368.005 379.5 372.618C299.651 377.23 284.316 339.196 281.551 291.345C278.787 243.494 289.641 203.947 369.49 199.335Z" fill="#74D7EE"/>
<path d="M373.119 376.097C373.119 456.078 334.263 572.637 286.333 572.637C238.402 572.637 199.546 456.078 199.546 376.097C199.546 296.115 238.402 282.999 286.333 282.999C334.263 282.999 373.119 296.115 373.119 376.097Z" fill="#FFAFC8"/>
<path d="M204.224 198.332C124.375 193.72 5.76938 225.789 3.00522 273.639C0.241051 321.49 114.365 367.003 194.214 371.616C274.062 376.228 289.398 338.194 292.162 290.343C294.926 242.492 284.072 202.945 204.224 198.332Z" fill="#74D7EE"/>
<path fill-rule="evenodd" clip-rule="evenodd" d="M447.897 288.307C502.249 333.531 548.618 397.341 529.774 429.979C505.809 471.488 385.438 446.858 316.172 406.867C303.903 399.784 294.06 392.693 286.302 385.59C278.722 392.358 269.233 399.114 257.541 405.865C188.275 445.856 67.9044 470.485 43.9391 428.976C25.0956 396.338 71.4647 332.528 125.816 287.304C68.1413 241.9 16.1774 173.386 35.9396 139.157C59.9049 97.6475 180.276 122.277 249.542 162.268C266.428 172.018 278.719 181.78 287.303 191.571C295.839 182.116 307.861 172.687 324.172 163.271C393.438 123.28 513.809 98.6501 537.774 140.159C557.536 174.388 505.572 242.903 447.897 288.307Z" fill="#FFAFC8"/>
<path fill-rule="evenodd" clip-rule="evenodd" d="M140.705 548.224C99.1956 524.259 123.825 403.888 163.816 334.622C170.124 323.697 176.437 314.696 182.76 307.377C170.566 298.882 158.423 284.991 146.3 263.993C106.31 194.727 81.6798 74.356 123.189 50.3906C161.704 28.1539 243.628 96.73 287.192 162.071C330.922 97.0337 412.206 29.2702 450.525 51.3932C492.034 75.3585 467.404 195.729 427.413 264.995C415.778 285.148 404.125 298.754 392.426 307.327C398.763 314.655 405.091 323.672 411.413 334.622C451.403 403.888 476.033 524.259 434.524 548.224C400.604 567.808 333.017 516.957 287.614 459.912C242.211 516.957 174.624 567.808 140.705 548.224ZM293.99 294.972C291.289 293.161 288.686 291.3 286.199 289.378C284.069 290.981 281.858 292.541 279.577 294.067C281.557 295.134 283.539 296.244 285.524 297.39C286.225 297.794 286.922 298.201 287.614 298.61C288.307 298.201 289.004 297.794 289.704 297.39C291.135 296.564 292.563 295.757 293.99 294.972Z" fill="#74D7EE"/>
<path d="M266.933 170.736C271.551 154.549 294.364 154.198 299.478 170.235L304.835 187.036C308.519 198.591 322.77 202.682 332.022 194.841L348.107 181.21C361.506 169.855 381.227 183.798 374.99 200.216L374.249 202.166C369.372 215.005 380.944 228.028 394.267 224.694L408.556 221.119C424.96 217.015 435.086 238.464 421.492 248.521V248.521C410.501 256.653 414.922 274.036 428.418 276.22V276.22C445.788 279.031 446.173 304.06 428.898 307.404V307.404C415.475 310.003 411.592 327.514 422.828 335.303V335.303C436.725 344.937 427.264 366.688 410.742 363.09L396.349 359.957C382.93 357.035 371.764 370.408 377.034 383.091L377.835 385.017C384.574 401.236 365.291 415.778 351.549 404.841L335.053 391.712C325.564 384.16 311.445 388.688 308.118 400.35L303.281 417.308C298.663 433.495 275.85 433.846 270.736 417.809L265.379 401.008C261.695 389.453 247.444 385.362 238.192 393.203L222.107 406.834C208.708 418.189 188.987 404.246 195.224 387.828L195.965 385.878C200.842 373.039 189.27 360.016 175.947 363.349L161.658 366.924C145.254 371.029 135.128 349.58 148.722 339.522V339.522C159.713 331.391 155.292 314.008 141.796 311.824V311.824C124.426 309.013 124.041 283.984 141.316 280.64V280.64C154.739 278.041 158.622 260.53 147.386 252.741V252.741C133.489 243.107 142.95 221.356 159.472 224.954L173.865 228.087C187.284 231.009 198.45 217.636 193.18 204.953L192.379 203.027C185.641 186.808 204.923 172.265 218.665 183.202L235.161 196.332C244.651 203.884 258.769 199.356 262.096 187.694L266.933 170.736Z" fill="white"/>
<path d="M271.843 241.592C274.94 230.734 290.243 230.498 293.673 241.256V241.256C296.144 249.006 305.703 251.75 311.909 246.491L317.884 241.428C325.434 235.03 336.546 242.886 333.032 252.138V252.138C330.284 259.372 336.804 266.71 344.312 264.832L351.827 262.952C360.879 260.687 366.466 272.523 358.965 278.072V278.072C352.9 282.559 355.34 292.151 362.787 293.356V293.356C372.371 294.907 372.584 308.718 363.052 310.564V310.564C355.645 311.997 353.502 321.66 359.702 325.958V325.958C367.37 331.274 362.15 343.276 353.033 341.291L345.463 339.643C337.902 337.997 331.61 345.532 334.579 352.678V352.678C338.377 361.817 327.511 370.012 319.768 363.849L313.641 358.973C307.276 353.907 297.805 356.944 295.574 364.767V364.767C292.477 375.625 277.174 375.86 273.744 365.103V365.103C271.272 357.352 261.713 354.608 255.507 359.868L249.533 364.93C241.983 371.329 230.871 363.472 234.385 354.221V354.221C237.133 346.986 230.612 339.648 223.105 341.526L215.589 343.407C206.538 345.671 200.95 333.836 208.451 328.286V328.286C214.516 323.799 212.077 314.207 204.63 313.002V313.002C195.045 311.451 194.832 297.64 204.365 295.795V295.795C211.771 294.361 213.914 284.699 207.714 280.4V280.4C200.046 275.084 205.266 263.083 214.383 265.068L221.953 266.716C229.515 268.362 235.807 260.826 232.837 253.68V253.68C229.04 244.541 239.905 236.346 247.648 242.509L253.776 247.386C260.141 252.452 269.611 249.414 271.843 241.592V241.592Z" fill="#F2EEB7"/>
<path fill-rule="evenodd" clip-rule="evenodd" d="M330.693 246.576C333.59 245.923 336.11 243.866 337.224 240.875C338.978 236.168 336.584 230.929 331.876 229.176C327.168 227.422 321.93 229.816 320.176 234.524C318.549 238.892 320.493 243.717 324.543 245.791L320.409 281.022C320.21 282.723 321.427 284.263 323.127 284.463C324.828 284.662 326.368 283.445 326.567 281.745L330.693 246.576Z" fill="#FFAFC8"/>
<path fill-rule="evenodd" clip-rule="evenodd" d="M234.935 303.742C237.557 302.127 239.295 299.22 239.267 295.916C239.226 290.892 235.12 286.853 230.096 286.895C225.072 286.937 221.034 291.043 221.075 296.066C221.113 300.571 224.418 304.284 228.723 304.973L238.162 342.231C238.59 343.924 240.31 344.948 242.003 344.52C243.696 344.091 244.721 342.371 244.292 340.678L234.935 303.742Z" fill="#FFAFC8"/>
<path fill-rule="evenodd" clip-rule="evenodd" d="M339.106 298.596C342.247 298.223 345.104 296.22 346.422 293.098C348.376 288.47 346.208 283.134 341.579 281.18C336.951 279.226 331.615 281.394 329.661 286.023C327.876 290.251 329.532 295.07 333.36 297.361L327.23 335.438C326.973 337.039 328.061 338.545 329.661 338.802C331.262 339.06 332.768 337.972 333.025 336.371L339.106 298.596Z" fill="#74D7EE"/>
<path fill-rule="evenodd" clip-rule="evenodd" d="M301.688 236.126C304.433 235.014 306.582 232.584 307.201 229.461C308.178 224.533 304.976 219.746 300.048 218.769C295.12 217.792 290.333 220.995 289.356 225.923C288.43 230.592 291.257 235.136 295.75 236.43L297.616 278.739C297.688 280.38 299.077 281.651 300.717 281.579C302.357 281.506 303.629 280.118 303.556 278.477L301.688 236.126Z" fill="#74D7EE"/>
<path fill-rule="evenodd" clip-rule="evenodd" d="M270.511 249.949C273.059 248.768 275.027 246.427 275.615 243.461C276.592 238.533 273.389 233.746 268.461 232.769C263.533 231.792 258.746 234.995 257.769 239.922C256.815 244.737 259.85 249.417 264.585 250.541L266.049 283.724C266.121 285.364 267.51 286.636 269.15 286.563C270.79 286.491 272.062 285.102 271.989 283.462L270.511 249.949Z" fill="#FFAFC8"/>
<path fill-rule="evenodd" clip-rule="evenodd" d="M304.615 311.899C307.112 310.703 309.034 308.386 309.614 305.461C310.592 300.533 307.389 295.746 302.461 294.769C297.533 293.792 292.746 296.995 291.769 301.922C290.83 306.657 293.75 311.262 298.351 312.482L299.934 348.358C300.01 350.092 301.477 351.435 303.211 351.359C304.944 351.282 306.287 349.815 306.211 348.082L304.615 311.899Z" fill="#FFAFC8"/>
<path fill-rule="evenodd" clip-rule="evenodd" d="M271.118 308.33C273.784 307.188 275.859 304.793 276.466 301.734C277.443 296.806 274.24 292.019 269.312 291.042C264.384 290.065 259.597 293.267 258.62 298.195C257.706 302.805 260.45 307.292 264.843 308.652L266.704 350.851C266.781 352.584 268.248 353.928 269.981 353.851C271.715 353.775 273.058 352.307 272.982 350.574L271.118 308.33Z" fill="#74D7EE"/>
<path fill-rule="evenodd" clip-rule="evenodd" d="M240.667 252.485C243.085 250.953 244.743 248.306 244.89 245.23C245.13 240.212 241.257 235.95 236.239 235.71C231.221 235.47 226.958 239.344 226.718 244.362C226.49 249.147 230.002 253.245 234.68 253.823L242.301 293.006C242.624 294.668 244.234 295.754 245.896 295.43C247.558 295.107 248.643 293.498 248.32 291.836L240.667 252.485Z" fill="#74D7EE"/>
</g>
<defs>
<clipPath id="clip0_1_2">
<rect width="574" height="574" fill="white"/>
</clipPath>
</defs>
</svg>
